<?xml version="1.0" encoding="UTF-8"?>
<svg width="36px" height="38px" viewBox="0 0 36 38" version="1.1" xmlns="http://www.w3.org/2000/svg" xmlns:xlink="http://www.w3.org/1999/xlink">
    <!-- Generator: Sketch 61.1 (89650) - https://sketch.com -->
    <title>svg/medium/at-sign</title>
    <desc>Created with Sketch.</desc>
    <g id="**-Sticker-Sheets" stroke="none" stroke-width="1" fill="none" fill-rule="evenodd" stroke-linecap="round" stroke-linejoin="round">
        <g id="sticker-sheet--all--page-1" transform="translate(-567.000000, -2148.000000)" stroke="#046B99" stroke-width="2">
            <g id="icon-preview-row-copy-20" transform="translate(0.000000, 2125.000000)">
                <g id="Icon-Row">
                    <g id="at-sign" transform="translate(561.000000, 18.214286)">
                        <path d="M24,31 C27.8659932,31 31,27.8659932 31,24 C31,20.1340068 27.8659932,17 24,17 C20.1340068,17 17,20.1340068 17,24 C17,27.8659932 20.1340068,31 24,31 Z M31,17 L31,26 C30.8003021,28.5161887 33.0835822,30.7994239 36,31 C38.7167199,30.7994239 41,28.5161887 41,26 L41,24 C40.9995025,16.1000861 35.5569897,9.24179065 28,7 C20.1707594,5.6511705 12.2546701,9.39202492 9,16 C5.26031002,23.558894 7.10377005,32.1179703 13,37 C19.3100122,42.1495624 28.0642312,42.300095 34,37"></path>
                    </g>
                </g>
            </g>
        </g>
    </g>
</svg>