<?xml version="1.0" encoding="UTF-8"?>
<svg width="44px" height="45px" viewBox="0 0 44 45" version="1.1" xmlns="http://www.w3.org/2000/svg" xmlns:xlink="http://www.w3.org/1999/xlink">
    <!-- Generator: Sketch 61.1 (89650) - https://sketch.com -->
    <title>svg/medium/bell-off</title>
    <desc>Created with Sketch.</desc>
    <g id="**-Sticker-Sheets" stroke="none" stroke-width="1" fill="none" fill-rule="evenodd" stroke-linecap="round" stroke-linejoin="round">
        <g id="sticker-sheet--all--page-1" transform="translate(-563.000000, -2825.000000)" stroke="#046B99" stroke-width="2">
            <g id="icon-preview-row-copy-28" transform="translate(0.000000, 2805.000000)">
                <g id="Icon-Row">
                    <g id="bell-off" transform="translate(561.000000, 18.214286)">
                        <path d="M27,38 C26.3795415,39.2371524 25.2365352,39.9964563 24,40 C22.7634648,39.9964563 21.6204585,39.2371524 21,38 M15,15 C14.8498463,15.9446001 14.7121039,16.9277445 15,18 C14.7142857,29.6480447 10,33 10,33 L32,33 M34,18 C34,21.3198506 34.414103,23.9459213 35,26 M34,17 C34.0056239,13.6827924 31.9185007,10.6326364 29,9 C25.2231658,7.49885049 21.159434,7.6700672 18,10 M3,3 L45,45"></path>
                    </g>
                </g>
            </g>
        </g>
    </g>
</svg>