<?xml version="1.0" encoding="UTF-8"?>
<svg width="37px" height="41px" viewBox="0 0 37 41" version="1.1" xmlns="http://www.w3.org/2000/svg" xmlns:xlink="http://www.w3.org/1999/xlink">
    <!-- Generator: Sketch 61.1 (89650) - https://sketch.com -->
    <title>svg/medium/cloud-drizzle</title>
    <desc>Created with Sketch.</desc>
    <g id="**-Sticker-Sheets" stroke="none" stroke-width="1" fill="none" fill-rule="evenodd" stroke-linecap="round" stroke-linejoin="round">
        <g id="sticker-sheet--all--page-2" transform="translate(-567.000000, -1468.000000)" stroke="#046B99" stroke-width="2">
            <g id="icon-preview-row-copy-62" transform="translate(0.000000, 1445.000000)">
                <g id="Icon-Row">
                    <g id="cloud-drizzle" transform="translate(561.000000, 18.214286)">
                        <path d="M18,37.4404762 L18,40.4761905 M18,28.3333333 L18,31.3690476 M32,37.4404762 L32,40.4761905 M32,28.3333333 L32,31.3690476 M25,41.4880952 L25,44.5238095 M25,31.3690476 L25,34.4047619 M37.2360581,31.3690476 C40.6829219,29.8282138 42.6003464,26.0328585 41.8313416,22.2731309 C41.0623367,18.5134034 37.8173286,15.8180937 34.0543823,15.8135743 L32.0499266,15.8135743 C30.6652522,10.3406669 25.9721189,6.40991074 20.4429814,6.09212204 C14.9138438,5.77433334 9.81803592,9.14246739 7.84015089,14.4221108 C5.86226586,19.7017541 7.45637029,25.6808497 11.7826519,29.2094673"></path>
                    </g>
                </g>
            </g>
        </g>
    </g>
</svg>