<?xml version="1.0" encoding="UTF-8"?>
<svg width="34px" height="35px" viewBox="0 0 34 35" version="1.1" xmlns="http://www.w3.org/2000/svg" xmlns:xlink="http://www.w3.org/1999/xlink">
    <!-- Generator: Sketch 61.1 (89650) - https://sketch.com -->
    <title>svg/medium/disc</title>
    <desc>Created with Sketch.</desc>
    <g id="**-Sticker-Sheets" stroke="none" stroke-width="1" fill="none" fill-rule="evenodd" stroke-linecap="round" stroke-linejoin="round">
        <g id="sticker-sheet--all--page-2" transform="translate(-568.000000, -3765.000000)" stroke="#046B99" stroke-width="2">
            <g id="icon-preview-row-copy-89" transform="translate(0.000000, 3740.000000)">
                <g id="Icon-Row">
                    <g id="disc" transform="translate(561.000000, 18.214286)">
                        <path d="M24,40.4761905 C32.836556,40.4761905 40,33.2274674 40,24.2857143 C40,15.3439612 32.836556,8.0952381 24,8.0952381 C15.163444,8.0952381 8,15.3439612 8,24.2857143 C8,33.2274674 15.163444,40.4761905 24,40.4761905 Z M24.5,29.3452381 C26.9852814,29.3452381 29,27.3065347 29,24.7916667 C29,22.2767986 26.9852814,20.2380952 24.5,20.2380952 C22.0147186,20.2380952 20,22.2767986 20,24.7916667 C20,27.3065347 22.0147186,29.3452381 24.5,29.3452381 Z"></path>
                    </g>
                </g>
            </g>
        </g>
    </g>
</svg>