<?xml version="1.0" encoding="UTF-8"?>
<svg width="40px" height="31px" viewBox="0 0 40 31" version="1.1" xmlns="http://www.w3.org/2000/svg" xmlns:xlink="http://www.w3.org/1999/xlink">
    <!-- Generator: Sketch 61.1 (89650) - https://sketch.com -->
    <title>svg/medium/eye</title>
    <desc>Created with Sketch.</desc>
    <g id="**-Sticker-Sheets" stroke="none" stroke-width="1" fill="none" fill-rule="evenodd" stroke-linecap="round" stroke-linejoin="round">
        <g id="sticker-sheet--all--page-3" transform="translate(-565.000000, -282.000000)" stroke="#046B99" stroke-width="2">
            <g id="icon-preview-row-copy-98" transform="translate(0.000000, 255.000000)">
                <g id="Icon-Row">
                    <g id="eye" transform="translate(561.000000, 18.214286)">
                        <path d="M5,24.2857143 C5,24.2857143 11.9090909,10.1190476 24,10.1190476 C36.0909091,10.1190476 43,24.2857143 43,24.2857143 C43,24.2857143 36.0909091,38.452381 24,38.452381 C11.9090909,38.452381 5,24.2857143 5,24.2857143 Z M24.5,30.3571429 C27.5375661,30.3571429 30,27.8653943 30,24.7916667 C30,21.717939 27.5375661,19.2261905 24.5,19.2261905 C21.4624339,19.2261905 19,21.717939 19,24.7916667 C19,27.8653943 21.4624339,30.3571429 24.5,30.3571429 Z"></path>
                    </g>
                </g>
            </g>
        </g>
    </g>
</svg>