<?xml version="1.0" encoding="UTF-8"?>
<svg width="35px" height="36px" viewBox="0 0 35 36" version="1.1" xmlns="http://www.w3.org/2000/svg" xmlns:xlink="http://www.w3.org/1999/xlink">
    <!-- Generator: Sketch 61.1 (89650) - https://sketch.com -->
    <title>svg/medium/gavel--c</title>
    <desc>Created with Sketch.</desc>
    <g id="**-Sticker-Sheets" stroke="none" stroke-width="1" fill="none" fill-rule="evenodd" stroke-linecap="round" stroke-linejoin="round">
        <g id="sticker-sheet--all--page-3" transform="translate(-567.000000, -1810.000000)" stroke="#046B99" stroke-width="2">
            <g id="icon-preview-row-copy-116" transform="translate(0.000000, 1785.000000)">
                <g id="Icon-Row">
                    <g id="gavel--c" transform="translate(561.000000, 18.214286)">
                        <path d="M23.4980406,8.92438182 L39.3205455,24.9352498 C40.0904698,25.7143399 40.0904698,26.9678014 39.3205455,27.7468915 L31.5257823,35.6344495 C30.7493689,36.4201059 29.4830611,36.4275988 28.6974047,35.6511854 C28.6917931,35.6456398 28.6862143,35.6400611 28.6806687,35.6344495 L12.8581639,19.6235814 C12.0882396,18.8444914 12.0882396,17.5910298 12.8581639,16.8119398 L20.6529271,8.92438182 C21.4293405,8.1387254 22.6956482,8.13123246 23.4813047,8.90764586 C23.4869163,8.91319145 23.492495,8.91877021 23.4980406,8.92438182 Z M25,31.3690476 L35,21.25 M17,23.2738095 L27,13.1547619 M7.61992995,40.9299247 L20.6307935,27.7641699"></path>
                    </g>
                </g>
            </g>
        </g>
    </g>
</svg>