<?xml version="1.0" encoding="UTF-8"?>
<svg width="36px" height="34px" viewBox="0 0 36 34" version="1.1" xmlns="http://www.w3.org/2000/svg" xmlns:xlink="http://www.w3.org/1999/xlink">
    <!-- Generator: Sketch 61.1 (89650) - https://sketch.com -->
    <title>svg/medium/gitlab</title>
    <desc>Created with Sketch.</desc>
    <g id="**-Sticker-Sheets" stroke="none" stroke-width="1" fill="none" fill-rule="evenodd" stroke-linecap="round" stroke-linejoin="round">
        <g id="sticker-sheet--all--page-3" transform="translate(-567.000000, -2406.000000)" stroke="#046B99" stroke-width="2">
            <g id="icon-preview-row-copy-123" transform="translate(0.000000, 2380.000000)">
                <g id="Icon-Row">
                    <g id="gitlab" transform="translate(561.000000, 18.214286)">
                        <path d="M40.4079086,28.4818069 L23.9682153,40.4761905 L7.52852187,28.4818069 C7.07641676,28.1480161 6.88952288,27.5601282 7.06543191,27.0251246 L8.9486644,21.1674024 L12.7151294,9.529441 C12.7516613,9.43461248 12.809815,9.34969486 12.884929,9.28149508 C13.1384452,9.04902545 13.5267201,9.04902545 13.7802363,9.28149508 C13.8595525,9.3584588 13.9179957,9.45446675 13.9500359,9.56043424 L17.7165009,21.1674024 L30.2199296,21.1674024 L33.9863946,9.529441 C34.0229265,9.43461248 34.0810803,9.34969486 34.1561942,9.28149508 C34.4097104,9.04902545 34.7979853,9.04902545 35.0515015,9.28149508 C35.1308177,9.3584588 35.189261,9.45446675 35.2213011,9.56043424 L38.9877661,21.1983956 L40.9481802,27.0251246 C41.1083257,27.577184 40.8887044,28.1693279 40.4079086,28.4818069 Z"></path>
                    </g>
                </g>
            </g>
        </g>
    </g>
</svg>