<?xml version="1.0" encoding="UTF-8"?>
<svg width="40px" height="51px" viewBox="0 0 40 51" version="1.1" xmlns="http://www.w3.org/2000/svg" xmlns:xlink="http://www.w3.org/1999/xlink">
    <!-- Generator: Sketch 61.1 (89650) - https://sketch.com -->
    <title>svg/medium/plant-growing--c</title>
    <desc>Created with Sketch.</desc>
    <g id="**-Sticker-Sheets" stroke="none" stroke-width="1" fill="none" fill-rule="evenodd" stroke-linecap="round" stroke-linejoin="round">
        <g id="sticker-sheet--all--page-5" transform="translate(-573.000000, -273.000000)" stroke="#046B99" stroke-width="2">
            <g id="icon-preview-row-copy-23" transform="translate(0.000000, 254.000000)">
                <g id="Icon-Row--Large-icon">
                    <g id="plant-growing--c" transform="translate(561.000000, 10.000000)">
                        <path d="M43,41.5 L40,57.1216216 C37.3333333,58.0405405 34.6666667,58.5 32,58.5 C29.3333333,58.5 26.6666667,58.0405405 24,57.1216216 L21,41.5 L21,41.5 M32,45 C38.0751322,45 43,43.4329966 43,41.5 C43,39.5670034 38.0751322,38 32,38 C25.9248678,38 21,39.5670034 21,41.5 C21,43.4329966 25.9248678,45 32,45 Z M32,41 L32,15 M27,24 C27,25.1527856 29.9436466,28 31,28 M27,24 C22.7663128,25.423167 19.9238283,25.4091097 18.4725466,23.957828 C17.021265,22.5065463 15.3114647,17.9683189 13.3431458,10.3431458 C20.9683189,12.3114647 25.5065463,14.021265 26.957828,15.4725466 C28.4091097,16.9238283 28.423167,19.7663128 27,24 Z M20,17 C21,18 22,19 23,20 M37,30.6568542 C37,31.6326374 34.2333559,34.6568542 33,34.6568542 M37,30.6568542 C41.2336872,32.0800213 44.0761717,32.065964 45.5274534,30.6146823 C46.978735,29.1634006 48.6885353,24.6251732 50.6568542,17 C43.0316811,18.9683189 38.4934537,20.6781192 37.042172,22.1294009 C35.5908903,23.5806826 35.576833,26.423167 37,30.6568542 Z M44,23.6568542 C43,24.6568542 42,25.6568542 41,26.6568542"></path>
                    </g>
                </g>
            </g>
        </g>
    </g>
</svg>