<?xml version="1.0" encoding="UTF-8"?>
<svg width="37px" height="37px" viewBox="0 0 37 37" version="1.1" xmlns="http://www.w3.org/2000/svg" xmlns:xlink="http://www.w3.org/1999/xlink">
    <!-- Generator: Sketch 61.1 (89650) - https://sketch.com -->
    <title>svg/medium/puzzle-1--c</title>
    <desc>Created with Sketch.</desc>
    <g id="**-Sticker-Sheets" stroke="none" stroke-width="1" fill="none" fill-rule="evenodd" stroke-linecap="round" stroke-linejoin="round">
        <g id="sticker-sheet--all--page-5" transform="translate(-570.000000, -1377.000000)" stroke="#046B99" stroke-width="2">
            <g id="icon-preview-row-copy-240" transform="translate(0.000000, 1357.000000)">
                <g id="Icon-Row">
                    <g id="puzzle-1--c" transform="translate(561.000000, 18.214286)">
                        <path d="M24.495258,3.03571429 C26.9805394,3.03571429 28.995258,5.07441766 28.995258,7.58928571 C28.995258,9.02016712 28.3430422,10.2969019 27.3230284,11.1316865 L34.995258,11.1309524 C36.0998275,11.1309524 36.995258,12.0263829 36.995258,13.1309524 L36.9959515,21.9314238 C37.8208963,20.8985834 39.0830375,20.2380952 40.497629,20.2380952 C42.9829104,20.2380952 44.997629,22.2767986 44.997629,24.7916667 C44.997629,27.3065347 42.9829104,29.3452381 40.497629,29.3452381 C39.0830013,29.3452381 37.8208318,28.6847162 36.9958883,27.6518303 L36.995258,35.4404762 C36.995258,36.5450457 36.0998275,37.4404762 34.995258,37.4404762 L27.3240459,37.4403773 C28.343476,36.6055765 28.995258,35.3292151 28.995258,33.8988095 C28.995258,31.3839415 26.9805394,29.3452381 24.495258,29.3452381 C22.0099766,29.3452381 19.995258,31.3839415 19.995258,33.8988095 C19.995258,35.3292151 20.64704,36.6055765 21.6664701,37.4403773 L12.995258,37.4404762 C11.8906885,37.4404762 10.995258,36.5450457 10.995258,35.4404762 L10.9950818,27.6508202 C11.820009,28.6842855 13.0825402,29.3452381 14.497629,29.3452381 C16.9829104,29.3452381 18.997629,27.3065347 18.997629,24.7916667 C18.997629,22.2767986 16.9829104,20.2380952 14.497629,20.2380952 C13.0825734,20.2380952 11.8200682,20.8990168 10.9951397,21.9324405 L10.995258,13.1309524 C10.995258,12.0263829 11.8906885,11.1309524 12.995258,11.1309524 L21.6674876,11.1316865 C20.6474737,10.2969019 19.995258,9.02016712 19.995258,7.58928571 C19.995258,5.07441766 22.0099766,3.03571429 24.495258,3.03571429 Z"></path>
                    </g>
                </g>
            </g>
        </g>
    </g>
</svg>