<?xml version="1.0" encoding="UTF-8"?>
<svg width="32px" height="31px" viewBox="0 0 32 31" version="1.1" xmlns="http://www.w3.org/2000/svg" xmlns:xlink="http://www.w3.org/1999/xlink">
    <!-- Generator: Sketch 61.1 (89650) - https://sketch.com -->
    <title>svg/white/briefcase</title>
    <desc>Created with Sketch.</desc>
    <g id="**-Sticker-Sheets" stroke="none" stroke-width="1" fill="none" fill-rule="evenodd" stroke-linecap="round" stroke-linejoin="round">
        <g id="sticker-sheet--all--page-1" transform="translate(-865.000000, -3427.000000)" stroke="#FFFFFF" stroke-width="2">
            <g id="icon-preview-row-copy-35" transform="translate(0.000000, 3400.000000)">
                <g id="Icon-Row">
                    <g id="briefcase" transform="translate(857.000000, 18.214286)">
                        <path d="M11,16 L37,16 C38.1045695,16 39,16.8954305 39,18 L39,36 C39,37.1045695 38.1045695,38 37,38 L11,38 C9.8954305,38 9,37.1045695 9,36 L9,18 C9,16.8954305 9.8954305,16 11,16 Z M30,38 L30,13 C30,11.3928919 28.6568542,10 27,10 L21,10 C19.3431458,10 18,11.3928919 18,13 L18,38"></path>
                    </g>
                </g>
            </g>
        </g>
    </g>
</svg>