<?xml version="1.0" encoding="UTF-8"?>
<svg width="26px" height="38px" viewBox="0 0 26 38" version="1.1" xmlns="http://www.w3.org/2000/svg" xmlns:xlink="http://www.w3.org/1999/xlink">
    <!-- Generator: Sketch 61.1 (89650) - https://sketch.com -->
    <title>svg/white/lightbulb-2--c</title>
    <desc>Created with Sketch.</desc>
    <g id="**-Sticker-Sheets" stroke="none" stroke-width="1" fill="none" fill-rule="evenodd" stroke-linecap="round" stroke-linejoin="round">
        <g id="sticker-sheet--all--page-3" transform="translate(-868.000000, -4104.000000)" stroke="#FFFFFF" stroke-width="2">
            <g id="icon-preview-row-copy-143" transform="translate(0.000000, 4080.000000)">
                <g id="Icon-Row">
                    <g id="lightbulb-2--c" transform="translate(857.000000, 18.214286)">
                        <path d="M19,34.4047619 L29,34.4047619 C29.8963569,33.2850154 30.7172181,32.0010815 31.4625836,30.5529604 C33.1541945,27.2664416 36,23.4908516 36,19.2261905 C36,12.5198757 30.627417,7.08333333 24,7.08333333 C17.372583,7.08333333 12,12.1428571 12,19.2261905 C12,23.5534006 14.7934337,27.3071255 16.380301,30.4873652 C17.1365781,32.0030195 18.0098111,33.3088185 19,34.4047619 Z M20,38.452381 L28,38.452381 M21,42.5 L27,42.5 M22,22.2619048 L22,33.6458333 M26,22.2619048 L26,33.3928571 M22,22.2619048 L26,22.2619048 M26.1213203,21.6182939 C28.9497475,21.6182939 30.363961,21.6182939 30.363961,21.6182939 C31.5355339,20.4327737 31.5355339,18.5106658 30.3639992,17.3251074 C29.1923882,16.1396254 27.2928932,16.1396254 26.1212822,17.3251074 C26.1212822,17.3251074 26.1212949,18.7561696 26.1213203,21.6182939 Z M22.363961,21.6182939 C19.5355339,21.6182939 18.1213203,21.6182939 18.1213203,21.6182939 C16.9497475,20.4327737 16.9497475,18.5106658 18.1212822,17.3251074 C19.2928932,16.1396254 21.1923882,16.1396254 22.3639992,17.3251074 C22.3639992,17.3251074 22.3639865,18.7561696 22.363961,21.6182939 Z"></path>
                    </g>
                </g>
            </g>
        </g>
    </g>
</svg>