<?xml version="1.0" encoding="UTF-8"?>
<svg width="30px" height="31px" viewBox="0 0 30 31" version="1.1" xmlns="http://www.w3.org/2000/svg" xmlns:xlink="http://www.w3.org/1999/xlink">
    <!-- Generator: Sketch 61.1 (89650) - https://sketch.com -->
    <title>svg/white/link</title>
    <desc>Created with Sketch.</desc>
    <g id="**-Sticker-Sheets" stroke="none" stroke-width="1" fill="none" fill-rule="evenodd" stroke-linecap="round" stroke-linejoin="round">
        <g id="sticker-sheet--all--page-3" transform="translate(-866.000000, -4192.000000)" stroke="#FFFFFF" stroke-width="2">
            <g id="icon-preview-row-copy-144" transform="translate(0.000000, 4165.000000)">
                <g id="Icon-Row">
                    <g id="link" transform="translate(857.000000, 18.214286)">
                        <path d="M21,25.5106445 C22.2368375,27.1460047 24.1308642,28.1694414 26.1904999,28.3153295 C28.2501357,28.4612176 30.2722955,27.7151721 31.7321434,26.2708235 L36.002227,22.047607 C38.6992987,19.2857721 38.6607268,14.8956972 35.9155342,12.180635 C33.1703416,9.46557278 28.7315478,9.42742421 25.9390634,12.0948936 L23.4908821,14.502127 M27,23.0607841 C25.7631625,21.4254239 23.8691358,20.4019872 21.8095001,20.2560991 C19.7498643,20.110211 17.7277045,20.8562565 16.2678566,22.3006051 L11.997773,26.5238215 C9.3007013,29.2856565 9.33927322,33.6757314 12.0844658,36.3907936 C14.8296584,39.1058558 19.2684522,39.1440044 22.0609366,36.4765349 L24.4948843,34.0693016"></path>
                    </g>
                </g>
            </g>
        </g>
    </g>
</svg>