<?xml version="1.0" encoding="UTF-8"?>
<svg width="30px" height="34px" viewBox="0 0 30 34" version="1.1" xmlns="http://www.w3.org/2000/svg" xmlns:xlink="http://www.w3.org/1999/xlink">
    <!-- Generator: Sketch 61.1 (89650) - https://sketch.com -->
    <title>svg/white/package</title>
    <desc>Created with Sketch.</desc>
    <g id="**-Sticker-Sheets" stroke="none" stroke-width="1" fill="none" fill-rule="evenodd" stroke-linecap="round" stroke-linejoin="round">
        <g id="sticker-sheet--all--page-4" transform="translate(-866.000000, -3253.000000)" stroke="#FFFFFF" stroke-width="2">
            <g id="icon-preview-row-copy-181" transform="translate(0.000000, 3228.000000)">
                <g id="Icon-Row">
                    <g id="package" transform="translate(857.000000, 18.214286)">
                        <path d="M31.4588552,19.886075 L18,11.1309524 M38,30.0548583 L38,17.5046655 C37.9988611,16.3848771 37.4060392,15.3505802 36.4444444,14.7906863 L25.5555556,8.51558985 C24.5929744,7.95512084 23.4070256,7.95512084 22.4444444,8.51558985 L11.5555556,14.7906863 C10.5939608,15.3505802 10.0011389,16.3848771 10,17.5046655 L10,30.0548583 C10.0011389,31.1746468 10.5939608,32.2089436 11.5555556,32.7688375 L22.4444444,39.043934 C23.4070256,39.604403 24.5929744,39.604403 25.5555556,39.043934 L36.4444444,32.7688375 C37.4060392,32.2089436 37.9988611,31.1746468 38,30.0548583 Z M11,16.1904762 L24,24.2857143 L37.7463078,16.3371689 M24,39.4642857 L24,24.2857143"></path>
                    </g>
                </g>
            </g>
        </g>
    </g>
</svg>