<?xml version="1.0" encoding="UTF-8"?>
<svg width="30px" height="37px" viewBox="0 0 30 37" version="1.1" xmlns="http://www.w3.org/2000/svg" xmlns:xlink="http://www.w3.org/1999/xlink">
    <!-- Generator: Sketch 61.1 (89650) - https://sketch.com -->
    <title>svg/white/speaker</title>
    <desc>Created with Sketch.</desc>
    <g id="**-Sticker-Sheets" stroke="none" stroke-width="1" fill="none" fill-rule="evenodd" stroke-linecap="round" stroke-linejoin="round">
        <g id="sticker-sheet--all--page-5" transform="translate(-866.000000, -4186.000000)" stroke="#FFFFFF" stroke-width="2">
            <g id="icon-preview-row-copy-237" transform="translate(0.000000, 4162.000000)">
                <g id="Icon-Row">
                    <g id="speaker" transform="translate(857.000000, 18.214286)">
                        <path d="M12,7 L36,7 C37.1045695,7 38,7.8954305 38,9 L38,39 C38,40.1045695 37.1045695,41 36,41 L12,41 C10.8954305,41 10,40.1045695 10,39 L10,9 C10,7.8954305 10.8954305,7 12,7 Z M24,34 C27.8659932,34 31,30.8659932 31,27 C31,23.1340068 27.8659932,20 24,20 C20.1340068,20 17,23.1340068 17,27 C17,30.8659932 20.1340068,34 24,34 Z M24,14 L24,14"></path>
                    </g>
                </g>
            </g>
        </g>
    </g>
</svg>