<?xml version="1.0" encoding="UTF-8"?>
<svg width="33px" height="36px" viewBox="0 0 33 36" version="1.1" xmlns="http://www.w3.org/2000/svg" xmlns:xlink="http://www.w3.org/1999/xlink">
    <!-- Generator: Sketch 61.1 (89650) - https://sketch.com -->
    <title>svg/medium/chat-2--c copy</title>
    <desc>Created with Sketch.</desc>
    <g id="**-Sticker-Sheets" stroke="none" stroke-width="1" fill="none" fill-rule="evenodd" stroke-linecap="round" stroke-linejoin="round">
        <g id="sticker-sheet--top-hits--page-1" transform="translate(-565.000000, -537.000000)" stroke="#046B99" stroke-width="2">
            <g id="icon-preview-row-copy-42" transform="translate(-4.000000, 512.000000)">
                <g id="Icon-Row">
                    <g id="chat-2--c-copy" transform="translate(561.000000, 18.214286)">
                        <path d="M35,25.3333333 C35,26.9288226 33.7066004,28.2222222 32.1111111,28.2222222 L14.7777778,28.2222222 L9,34 L9,10.8888889 C9,9.29339961 10.2933996,8 11.8888889,8 L32.1111111,8 C33.7066004,8 35,9.29339961 35,10.8888889 L35,25.3333333 Z M39.1161694,24 C39.6471648,24.3401265 40,24.9417876 40,25.6272844 L40,41 L36.2222222,37.1568211 L24.8888889,37.1568211 C23.8456844,37.1568211 23,36.2964962 23,35.2352316 L23,32.3541785 M15,14.5 L29,14.5 M15,20.5 L29,20.5" transform="translate(24.500000, 24.500000) scale(-1, 1) translate(-24.500000, -24.500000) "></path>
                    </g>
                </g>
            </g>
        </g>
    </g>
</svg>