<?xml version="1.0" encoding="UTF-8"?>
<svg width="30px" height="33px" viewBox="0 0 30 33" version="1.1" xmlns="http://www.w3.org/2000/svg" xmlns:xlink="http://www.w3.org/1999/xlink">
    <!-- Generator: Sketch 61.1 (89650) - https://sketch.com -->
    <title>svg/medium/database</title>
    <desc>Created with Sketch.</desc>
    <g id="**-Sticker-Sheets" stroke="none" stroke-width="1" fill="none" fill-rule="evenodd" stroke-linecap="round" stroke-linejoin="round">
        <g id="sticker-sheet--top-hits--page-2" transform="translate(-567.000000, -3184.000000)" stroke="#046B99" stroke-width="2">
            <g id="icon-preview-row-copy-87" transform="translate(-3.000000, 3159.000000)">
                <g id="Icon-Row">
                    <g id="database" transform="translate(561.000000, 18.214286)">
                        <path d="M24,17.202381 C31.7319865,17.202381 38,15.1636776 38,12.6488095 C38,10.1339415 31.7319865,8.0952381 24,8.0952381 C16.2680135,8.0952381 10,10.1339415 10,12.6488095 C10,15.1636776 16.2680135,17.202381 24,17.202381 Z M38,23.2738095 C38,26.0734127 31.7777778,28.3333333 24,28.3333333 C16.2222222,28.3333333 10,26.0734127 10,23.2738095 M10,12.1428571 L10,33.8095238 C10,36.3785714 16.2222222,38.452381 24,38.452381 C31.7777778,38.452381 38,36.3785714 38,33.8095238 L38,12.1428571"></path>
                    </g>
                </g>
            </g>
        </g>
    </g>
</svg>