<?xml version="1.0" encoding="UTF-8"?>
<svg width="30px" height="31px" viewBox="0 0 30 31" version="1.1" xmlns="http://www.w3.org/2000/svg" xmlns:xlink="http://www.w3.org/1999/xlink">
    <!-- Generator: Sketch 61.1 (89650) - https://sketch.com -->
    <title>svg/medium/git-merge</title>
    <desc>Created with Sketch.</desc>
    <g id="**-Sticker-Sheets" stroke="none" stroke-width="1" fill="none" fill-rule="evenodd" stroke-linecap="round" stroke-linejoin="round">
        <g id="sticker-sheet--top-hits--page-2" transform="translate(-571.000000, -3441.000000)" stroke="#046B99" stroke-width="2">
            <g id="icon-preview-row-copy-120" transform="translate(1.000000, 3414.000000)">
                <g id="Icon-Row">
                    <g id="git-merge" transform="translate(561.000000, 18.214286)">
                        <path d="M33.5,38.452381 C35.9852814,38.452381 38,36.4136776 38,33.8988095 C38,31.3839415 35.9852814,29.3452381 33.5,29.3452381 C31.0147186,29.3452381 29,31.3839415 29,33.8988095 C29,36.4136776 31.0147186,38.452381 33.5,38.452381 Z M14.5,19.2261905 C16.9852814,19.2261905 19,17.1874871 19,14.672619 C19,12.157751 16.9852814,10.1190476 14.5,10.1190476 C12.0147186,10.1190476 10,12.157751 10,14.672619 C10,17.1874871 12.0147186,19.2261905 14.5,19.2261905 Z M15,38.452381 L15,19.2261905 C15,27.1899393 21.2680135,33.6458333 29,33.6458333"></path>
                    </g>
                </g>
            </g>
        </g>
    </g>
</svg>