<?xml version="1.0" encoding="UTF-8"?>
<svg width="26px" height="40px" viewBox="0 0 26 40" version="1.1" xmlns="http://www.w3.org/2000/svg" xmlns:xlink="http://www.w3.org/1999/xlink">
    <!-- Generator: Sketch 61.1 (89650) - https://sketch.com -->
    <title>svg/medium/lightbulb--c</title>
    <desc>Created with Sketch.</desc>
    <g id="**-Sticker-Sheets" stroke="none" stroke-width="1" fill="none" fill-rule="evenodd" stroke-linecap="round" stroke-linejoin="round">
        <g id="sticker-sheet--top-hits--page-1" transform="translate(-568.000000, -1895.000000)" stroke="#046B99" stroke-width="2">
            <g id="icon-preview-row-copy-142" transform="translate(-4.000000, 1872.000000)">
                <g id="Icon-Row">
                    <g id="lightbulb--c" transform="translate(561.000000, 18.214286)">
                        <path d="M19,35.4166667 L29,35.4166667 C29.8963569,32.9477138 30.7172181,30.9891768 31.4625836,29.5410556 C33.1541945,26.2545368 36,22.4789469 36,18.2142857 C36,11.5079709 30.627417,6.07142857 24,6.07142857 C17.372583,6.07142857 12,11.1309524 12,18.2142857 C12,22.5414958 14.7934337,26.2952207 16.380301,29.4754604 C17.1365781,30.9911148 18.0098111,32.9715169 19,35.4166667 Z M31,19.2610837 C31,15.3297957 27.8659932,12.1428571 24,12.1428571 M20,39.4642857 L28,39.4642857 M21,43.5119048 L27,43.5119048"></path>
                    </g>
                </g>
            </g>
        </g>
    </g>
</svg>