<?xml version="1.0" encoding="UTF-8"?>
<svg width="34px" height="40px" viewBox="0 0 34 40" version="1.1" xmlns="http://www.w3.org/2000/svg" xmlns:xlink="http://www.w3.org/1999/xlink">
    <!-- Generator: Sketch 61.1 (89650) - https://sketch.com -->
    <title>svg/white/city-2--c</title>
    <desc>Created with Sketch.</desc>
    <g id="**-Sticker-Sheets" stroke="none" stroke-width="1" fill="none" fill-rule="evenodd" stroke-linecap="round" stroke-linejoin="round">
        <g id="sticker-sheet--top-hits--page-1" transform="translate(-860.000000, -449.000000)" stroke="#FFFFFF" stroke-width="2">
            <g id="icon-preview-row-copy-58" transform="translate(-4.000000, 427.000000)">
                <g id="Icon-Row">
                    <g id="city-2--c" transform="translate(857.000000, 18.214286)">
                        <path d="M8,14.1666667 L17,14.1666667 L24,14.1666667 L24,42.5 L8,42.5 L8,14.1666667 Z M8,14.1666667 L17,14.1666667 L24,14.1666667 L24,11.1071429 C24,10.0025734 23.1045695,9.10714286 22,9.10714286 L10,9.10714286 C8.8954305,9.10714286 8,10.0025734 8,11.1071429 L8,14.1666667 L8,14.1666667 Z M37.1216225,17.5975981 L24,24.0122265 L24,24.0122265 L24,42.5 L40,42.5 L40,19.3943877 C40,18.2898182 39.1045695,17.3943877 38,17.3943877 C37.6955572,17.3943877 37.3951323,17.4638902 37.1216225,17.5975981 Z M16.5,9.10714286 L16.5,5.05952381 M16,37.4404762 L16,41.4880952 M32,37.4404762 L32,41.4880952 M32,31.875 L32,31.875 M32,26.8154762 L32,26.8154762 M16,21.7559524 L16,21.7559524 M16,26.8154762 L16,26.8154762 M16,31.875 L16,31.875"></path>
                    </g>
                </g>
            </g>
        </g>
    </g>
</svg>