<?xml version="1.0" encoding="UTF-8"?>
<svg width="32px" height="33px" viewBox="0 0 32 33" version="1.1" xmlns="http://www.w3.org/2000/svg" xmlns:xlink="http://www.w3.org/1999/xlink">
    <!-- Generator: Sketch 61.1 (89650) - https://sketch.com -->
    <title>svg/white/copy</title>
    <desc>Created with Sketch.</desc>
    <g id="**-Sticker-Sheets" stroke="none" stroke-width="1" fill="none" fill-rule="evenodd" stroke-linecap="round" stroke-linejoin="round">
        <g id="sticker-sheet--top-hits--page-1" transform="translate(-865.000000, -1133.000000)" stroke="#FFFFFF" stroke-width="2">
            <g id="icon-preview-row-copy-74" transform="translate(0.000000, 1107.000000)">
                <g id="Icon-Row">
                    <g id="copy" transform="translate(857.000000, 18.214286)">
                        <path d="M21,19.2261905 L37,19.2261905 C38.1045695,19.2261905 39,20.121621 39,21.2261905 L39,37.4642857 C39,38.5688552 38.1045695,39.4642857 37,39.4642857 L21,39.4642857 C19.8954305,39.4642857 19,38.5688552 19,37.4642857 L19,21.2261905 C19,20.121621 19.8954305,19.2261905 21,19.2261905 Z M13.6153846,29.3452381 L12.0769231,29.3452381 C10.3775854,29.3452381 9,27.9512529 9,26.231685 L9,12.220696 C9,10.5011281 10.3775854,9.10714286 12.0769231,9.10714286 L25.9230769,9.10714286 C27.6224146,9.10714286 29,10.5011281 29,12.220696 L29,13.7774725"></path>
                    </g>
                </g>
            </g>
        </g>
    </g>
</svg>