<?xml version="1.0" encoding="UTF-8"?>
<svg width="44px" height="45px" viewBox="0 0 44 45" version="1.1" xmlns="http://www.w3.org/2000/svg" xmlns:xlink="http://www.w3.org/1999/xlink">
    <!-- Generator: Sketch 61.1 (89650) - https://sketch.com -->
    <title>svg/black/camera-off</title>
    <desc>Created with Sketch.</desc>
    <g id="**-Sticker-Sheets" stroke="none" stroke-width="1" fill="none" fill-rule="evenodd" stroke-linecap="round" stroke-linejoin="round">
        <g id="sticker-sheet--all--page-1" transform="translate(-415.000000, -3760.000000)" stroke="#000000" stroke-width="2">
            <g id="icon-preview-row-copy-39" transform="translate(0.000000, 3740.000000)">
                <g id="Icon-Row">
                    <g id="camera-off" transform="translate(413.000000, 18.214286)">
                        <path d="M3,3 L45,45 M37.9090909,38 L10.0909091,38 C8.38384714,38 7,36.6071081 7,34.8888889 L7,17.7777778 C7,16.0595586 8.38384714,14.6666667 10.0909091,14.6666667 L14.7272727,14.6666667 M19.3636364,10 L28.6363636,10 L31.7272727,14.6666667 L37.9090909,14.6666667 C39.6161529,14.6666667 41,16.0595586 41,17.7777778 L41,32.3066667 M29.0690909,29.1022222 C27.6664785,31.1654428 25.1732449,32.183359 22.7390022,31.6866169 C20.3047595,31.1898749 18.4022671,29.2749479 17.9087507,26.8247952 C17.4152343,24.3746424 18.4265406,21.8651131 20.4763636,20.4533333"></path>
                    </g>
                </g>
            </g>
        </g>
    </g>
</svg>