<?xml version="1.0" encoding="UTF-8"?>
<svg width="30px" height="31px" viewBox="0 0 30 31" version="1.1" xmlns="http://www.w3.org/2000/svg" xmlns:xlink="http://www.w3.org/1999/xlink">
    <!-- Generator: Sketch 61.1 (89650) - https://sketch.com -->
    <title>svg/black/command</title>
    <desc>Created with Sketch.</desc>
    <g id="**-Sticker-Sheets" stroke="none" stroke-width="1" fill="none" fill-rule="evenodd" stroke-linecap="round" stroke-linejoin="round">
        <g id="sticker-sheet--all--page-2" transform="translate(-422.000000, -2322.000000)" stroke="#000000" stroke-width="2">
            <g id="icon-preview-row-copy-72" transform="translate(0.000000, 2295.000000)">
                <g id="Icon-Row">
                    <g id="command" transform="translate(413.000000, 18.214286)">
                        <path d="M33.3333333,10.1190476 C30.7560045,10.1190476 28.6666667,12.2332585 28.6666667,14.8412698 L28.6666667,33.7301587 C28.6666667,36.33817 30.7560045,38.452381 33.3333333,38.452381 C35.9106622,38.452381 38,36.33817 38,33.7301587 C38,31.1221474 35.9106622,29.0079365 33.3333333,29.0079365 L14.6666667,29.0079365 C12.0893378,29.0079365 10,31.1221474 10,33.7301587 C10,36.33817 12.0893378,38.452381 14.6666667,38.452381 C17.2439955,38.452381 19.3333333,36.33817 19.3333333,33.7301587 L19.3333333,14.8412698 C19.3333333,12.2332585 17.2439955,10.1190476 14.6666667,10.1190476 C12.0893378,10.1190476 10,12.2332585 10,14.8412698 C10,17.4492812 12.0893378,19.5634921 14.6666667,19.5634921 L33.3333333,19.5634921 C35.9106622,19.5634921 38,17.4492812 38,14.8412698 C38,12.2332585 35.9106622,10.1190476 33.3333333,10.1190476 Z"></path>
                    </g>
                </g>
            </g>
        </g>
    </g>
</svg>