<?xml version="1.0" encoding="UTF-8"?>
<svg width="44px" height="45px" viewBox="0 0 44 45" version="1.1" xmlns="http://www.w3.org/2000/svg" xmlns:xlink="http://www.w3.org/1999/xlink">
    <!-- Generator: Sketch 61.1 (89650) - https://sketch.com -->
    <title>svg/black/eye-off</title>
    <desc>Created with Sketch.</desc>
    <g id="**-Sticker-Sheets" stroke="none" stroke-width="1" fill="none" fill-rule="evenodd" stroke-linecap="round" stroke-linejoin="round">
        <g id="sticker-sheet--all--page-3" transform="translate(-415.000000, -360.000000)" stroke="#000000" stroke-width="2">
            <g id="icon-preview-row-copy-99" transform="translate(0.000000, 340.000000)">
                <g id="Icon-Row">
                    <g id="eye-off" transform="translate(413.000000, 18.214286)">
                        <path d="M34,34.7140373 C31.0736192,37.078661 27.5102784,38.3886583 23.8311688,38.4524229 C11.8476978,38.4524229 5,23.9344206 5,23.9344206 C7.12944551,19.7276401 10.0829355,16.0522476 13.6623377,13.1548039 M21,10.5314899 C22.1559779,10.25466 23.3394969,10.1162786 24.5267176,10.1190896 C36.2824427,10.1190896 43,23.8643677 43,23.8643677 C41.9805764,25.8155164 40.7648259,27.6524446 39.3725191,29.3452801 M27,27.6712318 C25.704321,29.0782828 23.752978,29.6574752 21.9114843,29.1815913 C20.0699905,28.7057075 18.6320482,27.2506468 18.161763,25.3872305 C17.6914778,23.5238143 18.2638561,21.549241 19.6543536,20.2381372 M3,3.03571429 L45,45.5357143"></path>
                    </g>
                </g>
            </g>
        </g>
    </g>
</svg>