<?xml version="1.0" encoding="UTF-8"?>
<svg width="30px" height="31px" viewBox="0 0 30 31" version="1.1" xmlns="http://www.w3.org/2000/svg" xmlns:xlink="http://www.w3.org/1999/xlink">
    <!-- Generator: Sketch 61.1 (89650) - https://sketch.com -->
    <title>svg/black/film</title>
    <desc>Created with Sketch.</desc>
    <g id="**-Sticker-Sheets" stroke="none" stroke-width="1" fill="none" fill-rule="evenodd" stroke-linecap="round" stroke-linejoin="round">
        <g id="sticker-sheet--all--page-3" transform="translate(-422.000000, -1133.000000)" stroke="#000000" stroke-width="2">
            <g id="icon-preview-row-copy-108" transform="translate(0.000000, 1105.000000)">
                <g id="Icon-Row">
                    <g id="film" transform="translate(413.000000, 18.214286)">
                        <path d="M12.18,11.1309524 L35.82,11.1309524 C37.0239808,11.1309524 38,12.1069716 38,13.3109524 L38,37.2842857 C38,38.4882665 37.0239808,39.4642857 35.82,39.4642857 L12.18,39.4642857 C10.9760192,39.4642857 10,38.4882665 10,37.2842857 L10,13.3109524 C10,12.1069716 10.9760192,11.1309524 12.18,11.1309524 Z M17,11.1309524 L17,39.4642857 M31,11.1309524 L31,39.4642857 M10,25.297619 L38,25.297619 M10,18.2142857 L17,18.2142857 M10,32.3809524 L17,32.3809524 M31,32.3809524 L38,32.3809524 M31,18.2142857 L38,18.2142857"></path>
                    </g>
                </g>
            </g>
        </g>
    </g>
</svg>