<?xml version="1.0" encoding="UTF-8"?>
<svg width="32px" height="36px" viewBox="0 0 32 36" version="1.1" xmlns="http://www.w3.org/2000/svg" xmlns:xlink="http://www.w3.org/1999/xlink">
    <!-- Generator: Sketch 61.1 (89650) - https://sketch.com -->
    <title>svg/black/github</title>
    <desc>Created with Sketch.</desc>
    <g id="**-Sticker-Sheets" stroke="none" stroke-width="1" fill="none" fill-rule="evenodd" stroke-linecap="round" stroke-linejoin="round">
        <g id="sticker-sheet--all--page-3" transform="translate(-420.000000, -2320.000000)" stroke="#000000" stroke-width="2">
            <g id="icon-preview-row-copy-122" transform="translate(0.000000, 2295.000000)">
                <g id="Icon-Row">
                    <g id="github" transform="translate(413.000000, 18.214286)">
                        <path d="M18.7692308,36.7237657 C11.0769231,39.1059305 11.0769231,32.7534911 8,31.9594362 M29.5384615,41.4880952 L29.5384615,35.3421101 C29.6552048,33.8102151 29.1284479,32.3004242 28.0923077,31.1971434 C32.9230769,30.641305 38,28.7514543 38,20.0803745 C37.9996052,17.8630985 37.1733724,15.7308574 35.6923077,14.1249626 C36.3936244,12.1850968 36.3440369,10.0408989 35.5538462,8.13778849 C35.5538462,8.13778849 33.7384615,7.58195005 29.5384615,10.4881911 C26.0123216,9.50169176 22.2953707,9.50169176 18.7692308,10.4881911 C14.5692308,7.58195005 12.7538462,8.13778849 12.7538462,8.13778849 C11.9636554,10.0408989 11.9140679,12.1850968 12.6153846,14.1249626 C11.1232725,15.7427696 10.2961887,17.8942824 10.3075739,20.1280178 C10.3075739,28.7355732 15.3846154,30.6254239 20.2153846,31.2447867 C19.1917224,32.3367132 18.665956,33.8263439 18.7692308,35.3421101 L18.7692308,41.4880952"></path>
                    </g>
                </g>
            </g>
        </g>
    </g>
</svg>