<?xml version="1.0" encoding="UTF-8"?>
<svg width="34px" height="35px" viewBox="0 0 34 35" version="1.1" xmlns="http://www.w3.org/2000/svg" xmlns:xlink="http://www.w3.org/1999/xlink">
    <!-- Generator: Sketch 61.1 (89650) - https://sketch.com -->
    <title>svg/black/globe</title>
    <desc>Created with Sketch.</desc>
    <g id="**-Sticker-Sheets" stroke="none" stroke-width="1" fill="none" fill-rule="evenodd" stroke-linecap="round" stroke-linejoin="round">
        <g id="sticker-sheet--all--page-3" transform="translate(-420.000000, -2490.000000)" stroke="#000000" stroke-width="2">
            <g id="icon-preview-row-copy-124" transform="translate(0.000000, 2465.000000)">
                <g id="Icon-Row">
                    <g id="globe" transform="translate(413.000000, 18.214286)">
                        <path d="M24,40.4761905 C32.836556,40.4761905 40,33.2274674 40,24.2857143 C40,15.3439612 32.836556,8.0952381 24,8.0952381 C15.163444,8.0952381 8,15.3439612 8,24.2857143 C8,33.2274674 15.163444,40.4761905 24,40.4761905 Z M8,24.2857143 L40,24.2857143 M24.5,8.0952381 C28.5645806,12.5287618 30.8744732,18.2823405 31,24.2857143 C30.8744732,30.289088 28.5645806,36.0426667 24.5,40.4761905 C20.4354194,36.0426667 18.1255268,30.289088 18,24.2857143 C18.1255268,18.2823405 20.4354194,12.5287618 24.5,8.0952381 L24.5,8.0952381 Z"></path>
                    </g>
                </g>
            </g>
        </g>
    </g>
</svg>