<?xml version="1.0" encoding="UTF-8"?>
<svg width="30px" height="31px" viewBox="0 0 30 31" version="1.1" xmlns="http://www.w3.org/2000/svg" xmlns:xlink="http://www.w3.org/1999/xlink">
    <!-- Generator: Sketch 61.1 (89650) - https://sketch.com -->
    <title>svg/black/image</title>
    <desc>Created with Sketch.</desc>
    <g id="**-Sticker-Sheets" stroke="none" stroke-width="1" fill="none" fill-rule="evenodd" stroke-linecap="round" stroke-linejoin="round">
        <g id="sticker-sheet--all--page-3" transform="translate(-422.000000, -3257.000000)" stroke="#000000" stroke-width="2">
            <g id="icon-preview-row-copy-133" transform="translate(0.000000, 3230.000000)">
                <g id="Icon-Row">
                    <g id="image" transform="translate(413.000000, 18.214286)">
                        <path d="M12,10.1190476 L36,10.1190476 C37.1045695,10.1190476 38,11.0144781 38,12.1190476 L38,36.452381 C38,37.5569505 37.1045695,38.452381 36,38.452381 L12,38.452381 C10.8954305,38.452381 10,37.5569505 10,36.452381 L10,12.1190476 C10,11.0144781 10.8954305,10.1190476 12,10.1190476 Z M18.5,21.25 C19.8807119,21.25 21,20.117387 21,18.7202381 C21,17.3230892 19.8807119,16.1904762 18.5,16.1904762 C17.1192881,16.1904762 16,17.3230892 16,18.7202381 C16,20.117387 17.1192881,21.25 18.5,21.25 Z M38,29.0692641 L30.1875,21.25 L13,38.452381"></path>
                    </g>
                </g>
            </g>
        </g>
    </g>
</svg>