<?xml version="1.0" encoding="UTF-8"?>
<svg width="30px" height="31px" viewBox="0 0 30 31" version="1.1" xmlns="http://www.w3.org/2000/svg" xmlns:xlink="http://www.w3.org/1999/xlink">
    <!-- Generator: Sketch 61.1 (89650) - https://sketch.com -->
    <title>svg/black/music</title>
    <desc>Created with Sketch.</desc>
    <g id="**-Sticker-Sheets" stroke="none" stroke-width="1" fill="none" fill-rule="evenodd" stroke-linecap="round" stroke-linejoin="round">
        <g id="sticker-sheet--all--page-4" transform="translate(-422.000000, -2915.000000)" stroke="#000000" stroke-width="2">
            <g id="icon-preview-row-copy-177" transform="translate(0.000000, 2888.000000)">
                <g id="Icon-Row">
                    <g id="music" transform="translate(413.000000, 18.214286)">
                        <path d="M19,33.3928571 L19,13.2222222 L38,10.1190476 L38,30.2896825 M14.5,38.452381 C16.9852814,38.452381 19,36.4136776 19,33.8988095 C19,31.3839415 16.9852814,29.3452381 14.5,29.3452381 C12.0147186,29.3452381 10,31.3839415 10,33.8988095 C10,36.4136776 12.0147186,38.452381 14.5,38.452381 Z M33.5,35.4166667 C35.9852814,35.4166667 38,33.3779633 38,30.8630952 C38,28.3482272 35.9852814,26.3095238 33.5,26.3095238 C31.0147186,26.3095238 29,28.3482272 29,30.8630952 C29,33.3779633 31.0147186,35.4166667 33.5,35.4166667 Z"></path>
                    </g>
                </g>
            </g>
        </g>
    </g>
</svg>