<?xml version="1.0" encoding="UTF-8"?>
<svg width="32px" height="33px" viewBox="0 0 32 33" version="1.1" xmlns="http://www.w3.org/2000/svg" xmlns:xlink="http://www.w3.org/1999/xlink">
    <!-- Generator: Sketch 61.1 (89650) - https://sketch.com -->
    <title>svg/black/percent</title>
    <desc>Created with Sketch.</desc>
    <g id="**-Sticker-Sheets" stroke="none" stroke-width="1" fill="none" fill-rule="evenodd" stroke-linecap="round" stroke-linejoin="round">
        <g id="sticker-sheet--all--page-4" transform="translate(-421.000000, -3679.000000)" stroke="#000000" stroke-width="2">
            <g id="icon-preview-row-copy-186" transform="translate(0.000000, 3653.000000)">
                <g id="Icon-Row">
                    <g id="percent" transform="translate(413.000000, 18.214286)">
                        <path d="M37,11.1309524 L11,37.4404762 M13.5,18.2142857 C15.9852814,18.2142857 18,16.1755823 18,13.6607143 C18,11.1458462 15.9852814,9.10714286 13.5,9.10714286 C11.0147186,9.10714286 9,11.1458462 9,13.6607143 C9,16.1755823 11.0147186,18.2142857 13.5,18.2142857 Z M34.5,39.4642857 C36.9852814,39.4642857 39,37.4255823 39,34.9107143 C39,32.3958462 36.9852814,30.3571429 34.5,30.3571429 C32.0147186,30.3571429 30,32.3958462 30,34.9107143 C30,37.4255823 32.0147186,39.4642857 34.5,39.4642857 Z"></path>
                    </g>
                </g>
            </g>
        </g>
    </g>
</svg>