<?xml version="1.0" encoding="UTF-8"?>
<svg width="31px" height="32px" viewBox="0 0 31 32" version="1.1" xmlns="http://www.w3.org/2000/svg" xmlns:xlink="http://www.w3.org/1999/xlink">
    <!-- Generator: Sketch 61.1 (89650) - https://sketch.com -->
    <title>svg/black/phone-incoming</title>
    <desc>Created with Sketch.</desc>
    <g id="**-Sticker-Sheets" stroke="none" stroke-width="1" fill="none" fill-rule="evenodd" stroke-linecap="round" stroke-linejoin="round">
        <g id="sticker-sheet--all--page-4" transform="translate(-422.000000, -4020.000000)" stroke="#000000" stroke-width="2">
            <g id="icon-preview-row-copy-190" transform="translate(0.000000, 3993.000000)">
                <g id="Icon-Row">
                    <g id="phone-incoming" transform="translate(413.000000, 18.214286)">
                        <path d="M30,11.1309524 L30,19.2261905 L38,19.2261905 M39,10.1190476 L30,19.2261905 M36.9991522,32.5981876 L36.9991522,36.7111626 C37.0022553,37.4832299 36.6829079,38.2208416 36.1195646,38.742787 C35.5562213,39.2647325 34.8010916,39.522639 34.03969,39.453146 C29.8622785,38.9947423 25.8495807,37.5531497 22.3240205,35.2442016 C19.0439428,33.1392685 16.2630095,30.3308031 14.1787116,27.0182515 C11.8844198,23.4416139 10.4566353,19.3694816 10.0110285,15.1317538 C9.94243575,14.3651944 10.1960247,13.6048151 10.7098495,13.036359 C11.2236743,12.4679028 11.9504187,12.1437168 12.712556,12.1428571 L16.7852104,12.1428571 C18.1480076,12.1294463 19.3095786,13.1382873 19.5003134,14.5010976 C19.6722107,15.8173407 19.9909997,17.1097203 20.4505995,18.3535842 C20.8235664,19.3556078 20.5850175,20.4852106 19.8397013,21.2463766 L18.1156109,22.987536 C20.0481608,26.4198765 22.8622275,29.2618034 26.2609199,31.213486 L27.9850103,29.4723266 C28.7387144,28.7196315 29.8572435,28.478721 30.8494439,28.8553804 C32.0811139,29.3195304 33.360824,29.6414755 34.6641636,29.8150745 C36.0292668,30.0095639 37.033349,31.2063467 36.9991522,32.5981876 Z"></path>
                    </g>
                </g>
            </g>
        </g>
    </g>
</svg>