<?xml version="1.0" encoding="UTF-8"?>
<svg width="33px" height="34px" viewBox="0 0 33 34" version="1.1" xmlns="http://www.w3.org/2000/svg" xmlns:xlink="http://www.w3.org/1999/xlink">
    <!-- Generator: Sketch 61.1 (89650) - https://sketch.com -->
    <title>svg/black/phone-call</title>
    <desc>Created with Sketch.</desc>
    <g id="**-Sticker-Sheets" stroke="none" stroke-width="1" fill="none" fill-rule="evenodd" stroke-linecap="round" stroke-linejoin="round">
        <g id="sticker-sheet--all--page-4" transform="translate(-421.000000, -3849.000000)" stroke="#000000" stroke-width="2">
            <g id="icon-preview-row-copy-188" transform="translate(0.000000, 3823.000000)">
                <g id="Icon-Row">
                    <g id="phone-call" transform="translate(413.000000, 18.214286)">
                        <path d="M28.2014296,15.10272 C31.1666396,15.687014 33.4850867,18.0285775 34.0636124,21.0233525 M28.2014296,9.10714286 C34.4042843,9.80310082 39.303106,14.7445434 40,21.0083636 M38.5159031,32.96954 L38.5159031,37.4662229 C38.5192955,38.3103179 38.1701797,39.1167429 37.5543239,39.6873817 C36.938468,40.2580205 36.1129483,40.5399876 35.2805718,40.4640115 C30.7137591,39.9628424 26.3270139,38.3867606 22.4728155,35.862406 C18.8869823,33.5610994 15.8468217,30.4906265 13.568234,26.8690402 C11.0600777,22.9587308 9.49920093,18.5067008 9.0120565,13.8736267 C8.93706985,13.0355534 9.21429737,12.2042368 9.77601881,11.5827482 C10.3377402,10.9612596 11.1322288,10.6068296 11.9654094,10.6058898 L16.4177001,10.6058898 C17.9075316,10.5912278 19.1773795,11.6941857 19.3858939,13.1841353 C19.5738147,14.6231735 19.9223199,16.0361218 20.4247617,17.3960283 C20.8324951,18.4915327 20.5717097,19.7265185 19.7569181,20.5586953 L17.8721151,22.462291 C19.9848093,26.2148416 23.0611919,29.3218976 26.7766965,31.4556568 L28.6614996,29.552061 C29.4854609,28.7291455 30.7082547,28.4657599 31.7929441,28.8775586 C33.1394253,29.3850101 34.5384247,29.7369901 35.9632564,29.9267846 C37.4556089,30.1394182 38.5532875,31.4478514 38.5159031,32.96954 L38.5159031,32.96954 Z"></path>
                    </g>
                </g>
            </g>
        </g>
    </g>
</svg>