<?xml version="1.0" encoding="UTF-8"?>
<svg width="28px" height="29px" viewBox="0 0 28 29" version="1.1" xmlns="http://www.w3.org/2000/svg" xmlns:xlink="http://www.w3.org/1999/xlink">
    <!-- Generator: Sketch 61.1 (89650) - https://sketch.com -->
    <title>svg/black/server</title>
    <desc>Created with Sketch.</desc>
    <g id="**-Sticker-Sheets" stroke="none" stroke-width="1" fill="none" fill-rule="evenodd" stroke-linecap="round" stroke-linejoin="round">
        <g id="sticker-sheet--all--page-5" transform="translate(-423.000000, -2660.000000)" stroke="#000000" stroke-width="2">
            <g id="icon-preview-row-copy-219" transform="translate(0.000000, 2632.000000)">
                <g id="Icon-Row">
                    <g id="server" transform="translate(413.000000, 18.214286)">
                        <path d="M13,11 L35,11 C36.1045695,11 37,11.8954305 37,13 L37,19 C37,20.1045695 36.1045695,21 35,21 L13,21 C11.8954305,21 11,20.1045695 11,19 L11,13 C11,11.8954305 11.8954305,11 13,11 Z M13,27 L35,27 C36.1045695,27 37,27.8954305 37,29 L37,35 C37,36.1045695 36.1045695,37 35,37 L13,37 C11.8954305,37 11,36.1045695 11,35 L11,29 C11,27.8954305 11.8954305,27 13,27 Z M16,16 L16,16 M16,32 L16,32"></path>
                    </g>
                </g>
            </g>
        </g>
    </g>
</svg>