<?xml version="1.0" encoding="UTF-8"?>
<svg width="30px" height="37px" viewBox="0 0 30 37" version="1.1" xmlns="http://www.w3.org/2000/svg" xmlns:xlink="http://www.w3.org/1999/xlink">
    <!-- Generator: Sketch 61.1 (89650) - https://sketch.com -->
    <title>svg/black/share-2</title>
    <desc>Created with Sketch.</desc>
    <g id="**-Sticker-Sheets" stroke="none" stroke-width="1" fill="none" fill-rule="evenodd" stroke-linecap="round" stroke-linejoin="round">
        <g id="sticker-sheet--all--page-5" transform="translate(-422.000000, -2911.000000)" stroke="#000000" stroke-width="2">
            <g id="icon-preview-row-copy-222" transform="translate(0.000000, 2887.000000)">
                <g id="Icon-Row">
                    <g id="share-2" transform="translate(413.000000, 18.214286)">
                        <path d="M33.5,16 C35.9852814,16 38,13.9852814 38,11.5 C38,9.01471863 35.9852814,7 33.5,7 C31.0147186,7 29,9.01471863 29,11.5 C29,13.9852814 31.0147186,16 33.5,16 Z M14.5,29 C16.9852814,29 19,26.9852814 19,24.5 C19,22.0147186 16.9852814,20 14.5,20 C12.0147186,20 10,22.0147186 10,24.5 C10,26.9852814 12.0147186,29 14.5,29 Z M33.5,41 C35.9852814,41 38,38.9852814 38,36.5 C38,34.0147186 35.9852814,32 33.5,32 C31.0147186,32 29,34.0147186 29,36.5 C29,38.9852814 31.0147186,41 33.5,41 Z M19,27 L30,33 M29,15 L18,21"></path>
                    </g>
                </g>
            </g>
        </g>
    </g>
</svg>