<?xml version="1.0" encoding="UTF-8"?>
<svg width="40px" height="27px" viewBox="0 0 40 27" version="1.1" xmlns="http://www.w3.org/2000/svg" xmlns:xlink="http://www.w3.org/1999/xlink">
    <!-- Generator: Sketch 61.1 (89650) - https://sketch.com -->
    <title>svg/black/toggle-left</title>
    <desc>Created with Sketch.</desc>
    <g id="**-Sticker-Sheets" stroke="none" stroke-width="1" fill="none" fill-rule="evenodd" stroke-linecap="round" stroke-linejoin="round">
        <g id="sticker-sheet--all--page-6" transform="translate(-417.000000, -1133.000000)" stroke="#000000" stroke-width="2">
            <g id="icon-preview-row-copy-251" transform="translate(0.000000, 1104.000000)">
                <g id="Icon-Row">
                    <g id="toggle-left" transform="translate(413.000000, 18.214286)">
                        <path d="M12,12 L36,12 C39.8659932,12 43,15.1340068 43,19 L43,29 C43,32.8659932 39.8659932,36 36,36 L12,36 C8.13400675,36 5,32.8659932 5,29 L5,19 C5,15.1340068 8.13400675,12 12,12 Z M17.0909091,29.2727273 C19.9527482,29.2727273 22.2727273,26.9527482 22.2727273,24.0909091 C22.2727273,21.2290699 19.9527482,18.9090909 17.0909091,18.9090909 C14.2290699,18.9090909 11.9090909,21.2290699 11.9090909,24.0909091 C11.9090909,26.9527482 14.2290699,29.2727273 17.0909091,29.2727273 Z"></path>
                    </g>
                </g>
            </g>
        </g>
    </g>
</svg>