<?xml version="1.0" encoding="UTF-8"?>
<svg width="38px" height="17px" viewBox="0 0 38 17" version="1.1" xmlns="http://www.w3.org/2000/svg" xmlns:xlink="http://www.w3.org/1999/xlink">
    <!-- Generator: Sketch 61.1 (89650) - https://sketch.com -->
    <title>svg/black/voicemail</title>
    <desc>Created with Sketch.</desc>
    <g id="**-Sticker-Sheets" stroke="none" stroke-width="1" fill="none" fill-rule="evenodd" stroke-linecap="round" stroke-linejoin="round">
        <g id="sticker-sheet--all--page-6" transform="translate(-418.000000, -3602.000000)" stroke="#000000" stroke-width="2">
            <g id="icon-preview-row-copy-275" transform="translate(0.000000, 3568.000000)">
                <g id="Icon-Row">
                    <g id="voicemail" transform="translate(413.000000, 18.214286)">
                        <path d="M13.5,31 C17.6421356,31 21,27.8659932 21,24 C21,20.1340068 17.6421356,17 13.5,17 C9.35786438,17 6,20.1340068 6,24 C6,27.8659932 9.35786438,31 13.5,31 Z M34.5,31 C38.6421356,31 42,27.8659932 42,24 C42,20.1340068 38.6421356,17 34.5,17 C30.3578644,17 27,20.1340068 27,24 C27,27.8659932 30.3578644,31 34.5,31 Z M14,31 L35,31"></path>
                    </g>
                </g>
            </g>
        </g>
    </g>
</svg>