<?xml version="1.0" encoding="UTF-8"?>
<svg width="34px" height="29px" viewBox="0 0 34 29" version="1.1" xmlns="http://www.w3.org/2000/svg" xmlns:xlink="http://www.w3.org/1999/xlink">
    <!-- Generator: Sketch 61.1 (89650) - https://sketch.com -->
    <title>svg/black/wind</title>
    <desc>Created with Sketch.</desc>
    <g id="**-Sticker-Sheets" stroke="none" stroke-width="1" fill="none" fill-rule="evenodd" stroke-linecap="round" stroke-linejoin="round">
        <g id="sticker-sheet--all--page-6" transform="translate(-420.000000, -4276.000000)" stroke="#000000" stroke-width="2">
            <g id="icon-preview-row-copy-283" transform="translate(0.000000, 4248.000000)">
                <g id="Icon-Row">
                    <g id="wind" transform="translate(413.000000, 18.214286)">
                        <path d="M20.4103199,12.0325412 C21.45585,10.9068963 23.0782376,10.675171 24.3629823,11.4679833 C25.647727,12.2607955 26.2731575,13.8796429 25.8867338,15.4120205 C25.5003101,16.9443981 24.1987841,18.0066328 22.7157943,18 L8,18 M24.6312359,35.9674588 C25.6354444,37.0931037 27.1937118,37.324829 28.4276807,36.5320167 C29.6616496,35.7392045 30.2623617,34.1203571 29.8912103,32.5879795 C29.5200589,31.0556019 28.269972,29.9933672 26.8455931,30 L8,30 M33.1733469,17.0612766 C34.454329,15.7638504 36.4334045,15.5008338 38.0000737,16.4198108 C39.566743,17.3387878 40.3310438,19.2110143 39.8641114,20.9859459 C39.397179,22.7608774 37.8152384,23.996713 36.0059486,24 L8,24"></path>
                    </g>
                </g>
            </g>
        </g>
    </g>
</svg>