<?xml version="1.0" encoding="UTF-8"?>
<svg width="39px" height="23px" viewBox="0 0 39 23" version="1.1" xmlns="http://www.w3.org/2000/svg" xmlns:xlink="http://www.w3.org/1999/xlink">
    <!-- Generator: Sketch 61.1 (89650) - https://sketch.com -->
    <title>svg/bright/battery-charging</title>
    <desc>Created with Sketch.</desc>
    <g id="**-Sticker-Sheets" stroke="none" stroke-width="1" fill="none" fill-rule="evenodd" stroke-linecap="round" stroke-linejoin="round">
        <g id="sticker-sheet--all--page-1" transform="translate(-713.000000, -2666.000000)" stroke="#00CFFF" stroke-width="2">
            <g id="icon-preview-row-copy-26" transform="translate(0.000000, 2635.000000)">
                <g id="Icon-Row">
                    <g id="battery-charging" transform="translate(709.000000, 18.214286)">
                        <path d="M11.8888889,34 L8.44444444,34 C6.54213031,34 5,32.5076158 5,30.6666667 L5,17.3333333 C5,15.4923842 6.54213031,14 8.44444444,14 L13.9383333,14 M29.1111111,14 L32.5555556,14 C34.4578697,14 36,15.4923842 36,17.3333333 L36,30.6666667 C36,32.5076158 34.4578697,34 32.5555556,34 L27.0616667,34 M42,26 L42,23 M21.6666667,14 L15,24 L25,24 L18.3333333,34"></path>
                    </g>
                </g>
            </g>
        </g>
    </g>
</svg>