<?xml version="1.0" encoding="UTF-8"?>
<svg width="36px" height="37px" viewBox="0 0 36 37" version="1.1" xmlns="http://www.w3.org/2000/svg" xmlns:xlink="http://www.w3.org/1999/xlink">
    <!-- Generator: Sketch 61.1 (89650) - https://sketch.com -->
    <title>svg/bright/cpu</title>
    <desc>Created with Sketch.</desc>
    <g id="**-Sticker-Sheets" stroke="none" stroke-width="1" fill="none" fill-rule="evenodd" stroke-linecap="round" stroke-linejoin="round">
        <g id="sticker-sheet--all--page-2" transform="translate(-715.000000, -3254.000000)" stroke="#00CFFF" stroke-width="2">
            <g id="icon-preview-row-copy-83" transform="translate(0.000000, 3230.000000)">
                <g id="Icon-Row">
                    <g id="cpu" transform="translate(709.000000, 18.214286)">
                        <path d="M13.7857143,12.1428571 L35.2142857,12.1428571 C36.2005085,12.1428571 37,12.9518664 37,13.9498299 L37,35.6335034 C37,36.6314669 36.2005085,37.4404762 35.2142857,37.4404762 L13.7857143,37.4404762 C12.7994915,37.4404762 12,36.6314669 12,35.6335034 L12,13.9498299 C12,12.9518664 12.7994915,12.1428571 13.7857143,12.1428571 Z M20,20.2380952 L29,20.2380952 L29,29.3452381 L20,29.3452381 L20,20.2380952 Z M19.5,7.08333333 L19.5,11.1309524 L19.5,7.08333333 Z M28.5,7.08333333 L28.5,11.1309524 L28.5,7.08333333 Z M19.5,37.4404762 L19.5,41.4880952 L19.5,37.4404762 Z M28.5,37.4404762 L28.5,41.4880952 L28.5,37.4404762 Z M37,19.7321429 L41,19.7321429 L37,19.7321429 Z M37,26.8154762 L41,26.8154762 L37,26.8154762 Z M7,19.7321429 L11,19.7321429 L7,19.7321429 Z M7,26.8154762 L11,26.8154762 L7,26.8154762 Z"></path>
                    </g>
                </g>
            </g>
        </g>
    </g>
</svg>