<?xml version="1.0" encoding="UTF-8"?>
<svg width="22px" height="35px" viewBox="0 0 22 35" version="1.1" xmlns="http://www.w3.org/2000/svg" xmlns:xlink="http://www.w3.org/1999/xlink">
    <!-- Generator: Sketch 61.1 (89650) - https://sketch.com -->
    <title>svg/bright/mic</title>
    <desc>Created with Sketch.</desc>
    <g id="**-Sticker-Sheets" stroke="none" stroke-width="1" fill="none" fill-rule="evenodd" stroke-linecap="round" stroke-linejoin="round">
        <g id="sticker-sheet--all--page-4" transform="translate(-722.000000, -1640.000000)" stroke="#00CFFF" stroke-width="2">
            <g id="icon-preview-row-copy-164" transform="translate(0.000000, 1615.000000)">
                <g id="Icon-Row">
                    <g id="mic" transform="translate(709.000000, 18.214286)">
                        <path d="M24.5,8.0952381 C22.0147186,8.0952381 20,10.0368604 20,12.4319728 L20,23.9965986 C20,26.3917111 22.0147186,28.3333333 24.5,28.3333333 C26.9852814,28.3333333 29,26.3917111 29,23.9965986 L29,12.4319728 C29,10.0368604 26.9852814,8.0952381 24.5,8.0952381 Z M34,21.25 L34,24.1732805 C34,29.8239717 29.5228474,34.4047619 24,34.4047619 C18.4771526,34.4047619 14,29.8239717 14,24.1732805 L14,21.25 M24.5,34.4047619 L24.5,40.4761905 M19,39.9702381 L30,39.9702381"></path>
                    </g>
                </g>
            </g>
        </g>
    </g>
</svg>