<?xml version="1.0" encoding="UTF-8"?>
<svg width="6px" height="33px" viewBox="0 0 6 33" version="1.1" xmlns="http://www.w3.org/2000/svg" xmlns:xlink="http://www.w3.org/1999/xlink">
    <!-- Generator: Sketch 61.1 (89650) - https://sketch.com -->
    <title>svg/bright/more-vertical</title>
    <desc>Created with Sketch.</desc>
    <g id="**-Sticker-Sheets" stroke="none" stroke-width="1" fill="none" fill-rule="evenodd" stroke-linecap="round" stroke-linejoin="round">
        <g id="sticker-sheet--all--page-4" transform="translate(-730.000000, -2659.000000)" stroke="#00CFFF" stroke-width="2">
            <g id="icon-preview-row-copy-174" transform="translate(0.000000, 2633.000000)">
                <g id="Icon-Row">
                    <g id="more-vertical" transform="translate(709.000000, 18.214286)">
                        <path d="M24,26.3095238 C25.1045695,26.3095238 26,25.4034334 26,24.2857143 C26,23.1679951 25.1045695,22.2619048 24,22.2619048 C22.8954305,22.2619048 22,23.1679951 22,24.2857143 C22,25.4034334 22.8954305,26.3095238 24,26.3095238 Z M24,13.1547619 C25.1045695,13.1547619 26,12.2486715 26,11.1309524 C26,10.0132332 25.1045695,9.10714286 24,9.10714286 C22.8954305,9.10714286 22,10.0132332 22,11.1309524 C22,12.2486715 22.8954305,13.1547619 24,13.1547619 Z M24,39.4642857 C25.1045695,39.4642857 26,38.5581953 26,37.4404762 C26,36.3227571 25.1045695,35.4166667 24,35.4166667 C22.8954305,35.4166667 22,36.3227571 22,37.4404762 C22,38.5581953 22.8954305,39.4642857 24,39.4642857 Z"></path>
                    </g>
                </g>
            </g>
        </g>
    </g>
</svg>