<?xml version="1.0" encoding="UTF-8"?>
<svg width="31px" height="31px" viewBox="0 0 31 31" version="1.1" xmlns="http://www.w3.org/2000/svg" xmlns:xlink="http://www.w3.org/1999/xlink">
    <!-- Generator: Sketch 61.1 (89650) - https://sketch.com -->
    <title>svg/bright/thumbs-down</title>
    <desc>Created with Sketch.</desc>
    <g id="**-Sticker-Sheets" stroke="none" stroke-width="1" fill="none" fill-rule="evenodd" stroke-linecap="round" stroke-linejoin="round">
        <g id="sticker-sheet--all--page-6" transform="translate(-718.000000, -961.000000)" stroke="#00CFFF" stroke-width="2">
            <g id="icon-preview-row-copy-249" transform="translate(0.000000, 934.000000)">
                <g id="Icon-Row">
                    <g id="thumbs-down" transform="translate(709.000000, 18.214286)">
                        <path d="M21,28 L21,34 C21,36.3195534 22.8398595,38 25.1968537,38 L31,25 L31,9.99981857 L15,9.99981857 C13.581288,9.98421618 12.208117,10.9999884 11.9953873,12.3804697 L10,25 C9.87473399,25.8121877 10.2213197,26.4175967 10.7690648,27.0374976 C11.31681,27.6573985 12.1135471,28.0093023 12.9482435,28 L21,28 Z M31,10 L34.6854077,10.0005133 C36.3519358,9.97150853 37.776579,11.174953 38,12.800462 L38.1128591,22.2000513 C37.8894381,23.8255602 36.4647948,25.0290048 34.7982667,25 L31,25 L31,10 Z"></path>
                    </g>
                </g>
            </g>
        </g>
    </g>
</svg>