<?xml version="1.0" encoding="UTF-8"?>
<svg width="36px" height="32px" viewBox="0 0 36 32" version="1.1" xmlns="http://www.w3.org/2000/svg" xmlns:xlink="http://www.w3.org/1999/xlink">
    <!-- Generator: Sketch 61.1 (89650) - https://sketch.com -->
    <title>svg/bright/twitter</title>
    <desc>Created with Sketch.</desc>
    <g id="**-Sticker-Sheets" stroke="none" stroke-width="1" fill="none" fill-rule="evenodd" stroke-linecap="round" stroke-linejoin="round">
        <g id="sticker-sheet--all--page-6" transform="translate(-715.000000, -1981.000000)" stroke="#00CFFF" stroke-width="2">
            <g id="icon-preview-row-copy-261" transform="translate(0.000000, 1954.000000)">
                <g id="Icon-Row">
                    <g id="twitter" transform="translate(709.000000, 18.214286)">
                        <path d="M41,10.0165858 C39.5200495,11.108258 37.8814394,11.9432121 36.1472727,12.4892939 C34.2407375,10.1968475 31.1683899,9.392937 28.4541259,10.476305 C25.7398619,11.5596729 23.961055,14.2998671 24,17.3377412 L24,18.9538903 C18.4837547,19.1034687 13.2622209,16.3550749 10.0909091,11.6327349 C10.0909091,11.6327349 3.90909091,26.1780767 17.8181818,32.642673 C14.6353608,34.901995 10.843788,36.0348558 7,35.8749712 C20.9090909,43.9557166 37.9090909,35.8749712 37.9090909,17.2892567 C37.9076677,16.8390842 37.866278,16.3900223 37.7854545,15.947853 C39.3627503,14.3211877 40.4758242,12.2674173 41,10.0165858 Z"></path>
                    </g>
                </g>
            </g>
        </g>
    </g>
</svg>