<?xml version="1.0" encoding="UTF-8"?>
<svg width="36px" height="31px" viewBox="0 0 36 31" version="1.1" xmlns="http://www.w3.org/2000/svg" xmlns:xlink="http://www.w3.org/1999/xlink">
    <!-- Generator: Sketch 61.1 (89650) - https://sketch.com -->
    <title>svg/bright/camera</title>
    <desc>Created with Sketch.</desc>
    <g id="**-Sticker-Sheets" stroke="none" stroke-width="1" fill="none" fill-rule="evenodd" stroke-linecap="round" stroke-linejoin="round">
        <g id="sticker-sheet--all--page-1" transform="translate(-715.000000, -3682.000000)" stroke="#00CFFF" stroke-width="2">
            <g id="icon-preview-row-copy-38" transform="translate(0.000000, 3655.000000)">
                <g id="Icon-Row">
                    <g id="camera" transform="translate(709.000000, 18.214286)">
                        <path d="M41,35 C41,36.6071081 39.6161529,38 37.9090909,38 L10.0909091,38 C8.38384714,38 7,36.6071081 7,34.8888889 L7,17.7777778 C7,16.0595586 8.29293805,15 10,15 L16.1818182,15 L19.3636364,10 L28.6363636,10 L31.6363636,15 L37.8181818,15 C39.5252438,15 41,16.0595586 41,17.7777778 L41,35 Z M24,32 C27.3137085,32 30,29.3137085 30,26 C30,22.6862915 27.3137085,20 24,20 C20.6862915,20 18,22.6862915 18,26 C18,29.3137085 20.6862915,32 24,32 Z"></path>
                    </g>
                </g>
            </g>
        </g>
    </g>
</svg>