<?xml version="1.0" encoding="UTF-8"?>
<svg width="35px" height="36px" viewBox="0 0 35 36" version="1.1" xmlns="http://www.w3.org/2000/svg" xmlns:xlink="http://www.w3.org/1999/xlink">
    <!-- Generator: Sketch 61.1 (89650) - https://sketch.com -->
    <title>svg/bright/chat--c</title>
    <desc>Created with Sketch.</desc>
    <g id="**-Sticker-Sheets" stroke="none" stroke-width="1" fill="none" fill-rule="evenodd" stroke-linecap="round" stroke-linejoin="round">
        <g id="sticker-sheet--all--page-1" transform="translate(-716.000000, -3935.000000)" stroke="#00CFFF" stroke-width="2">
            <g id="icon-preview-row-copy-41" transform="translate(0.000000, 3910.000000)">
                <g id="Icon-Row">
                    <g id="chat--c" transform="translate(709.000000, 18.214286)">
                        <path d="M35.9926205,21.1820265 C38.3861326,23.1255563 39.8321359,26.1419929 39.8333352,29.3889073 C39.83735,31.0020765 39.4775827,32.5934278 38.7833368,34.0333444 L38.7833368,34.0333444 L41,41 L34.3500105,38.6777815 C32.9755447,39.4050867 31.4565276,39.7819857 29.9166842,39.7777797 C26.1612981,39.7762574 22.7289099,37.5525172 21.0500316,34.0333444 L21.1772577,34.2910981 C21.7069005,34.3575016 22.2413798,34.3903399 22.7777544,34.3888914 C27.7849359,34.3868847 32.3614534,31.4555908 34.5999579,26.8166812 C35.4021976,25.1716856 35.8694631,23.3767543 35.9763494,21.5431099 Z M36,21.2222456 C36.0053087,23.2753701 35.5256191,25.3007263 34.5999579,27.1333474 C32.3614534,31.6122946 27.7849359,34.4425094 22.7777544,34.4444469 C20.7246299,34.4498 18.6992737,33.9701103 16.8666526,33.0444491 L8,36 L10.9555509,27.1333474 C10.0298897,25.3007263 9.55020004,23.2753701 9.55555309,21.2222456 C9.55749063,16.2150641 12.3877054,11.6385466 16.8666526,9.4000421 C18.6992737,8.47438089 20.7246299,7.99469126 22.7777544,8 L23.5555309,8 C30.2690016,8.37042103 35.629579,13.7309984 36,20.4444691 L36,21.2222456 L36,21.2222456 Z M17,18 L29,18 M17,24 L29,24"></path>
                    </g>
                </g>
            </g>
        </g>
    </g>
</svg>