<?xml version="1.0" encoding="UTF-8"?>
<svg width="37px" height="36px" viewBox="0 0 37 36" version="1.1" xmlns="http://www.w3.org/2000/svg" xmlns:xlink="http://www.w3.org/1999/xlink">
    <!-- Generator: Sketch 61.1 (89650) - https://sketch.com -->
    <title>svg/bright/cloud-snow</title>
    <desc>Created with Sketch.</desc>
    <g id="**-Sticker-Sheets" stroke="none" stroke-width="1" fill="none" fill-rule="evenodd" stroke-linecap="round" stroke-linejoin="round">
        <g id="sticker-sheet--all--page-2" transform="translate(-715.000000, -1810.000000)" stroke="#00CFFF" stroke-width="2">
            <g id="icon-preview-row-copy-66" transform="translate(0.000000, 1785.000000)">
                <g id="Icon-Row">
                    <g id="cloud-snow" transform="translate(709.000000, 18.214286)">
                        <path d="M37.2360581,33.3928571 C40.6829219,31.8520233 42.6003464,28.056668 41.8313416,24.2969405 C41.0623367,20.5372129 37.8173286,17.8419032 34.0543823,17.8373838 L32.0499266,17.8373838 C30.6652522,12.3644764 25.9721189,8.43372026 20.4429814,8.11593156 C14.9138438,7.79814286 9.81803592,11.1662769 7.84015089,16.4459203 C5.86226586,21.7255637 7.45637029,27.7046593 11.7826519,31.2332768 M18,31.3690476 L18,31.3690476 M18,38.452381 L18,38.452381 M25,34.4047619 L25,34.4047619 M25,41.4880952 L25,41.4880952 M32,31.3690476 L32,31.3690476 M32,38.452381 L32,38.452381"></path>
                    </g>
                </g>
            </g>
        </g>
    </g>
</svg>