<?xml version="1.0" encoding="UTF-8"?>
<svg width="58px" height="52px" viewBox="0 0 58 52" version="1.1" xmlns="http://www.w3.org/2000/svg" xmlns:xlink="http://www.w3.org/1999/xlink">
    <!-- Generator: Sketch 61.1 (89650) - https://sketch.com -->
    <title>svg/bright/monitor-layout-1--c</title>
    <desc>Created with Sketch.</desc>
    <g id="**-Sticker-Sheets" stroke="none" stroke-width="1" fill="none" fill-rule="evenodd" stroke-linecap="round" stroke-linejoin="round">
        <g id="sticker-sheet--all--page-4" transform="translate(-712.000000, -2311.000000)" stroke="#00CFFF" stroke-width="2">
            <g id="icon-preview-row-copy-20" transform="translate(0.000000, 2295.000000)">
                <g id="Icon-Row--Large-icon">
                    <g id="monitor-layout-1--c" transform="translate(709.000000, 10.000000)">
                        <path d="M6,7 L58,7 C59.1045695,7 60,7.8954305 60,9 L60,44 C60,45.1045695 59.1045695,46 58,46 L6,46 C4.8954305,46 4,45.1045695 4,44 L4,9 C4,7.8954305 4.8954305,7 6,7 Z M21,57 L43,57 M32,46 L32,57 M5,13 L60,13 M28.4347826,20 L47.5652174,20 M28.4347826,34 L47.5652174,34 M28.4166667,24 L43,24 M28.4166667,38 L43,38 M13,18 L17,18 C18.1045695,18 19,18.8954305 19,20 L19,24 C19,25.1045695 18.1045695,26 17,26 L13,26 C11.8954305,26 11,25.1045695 11,24 L11,20 C11,18.8954305 11.8954305,18 13,18 Z M13,33 L17,33 C18.1045695,33 19,33.8954305 19,35 L19,39 C19,40.1045695 18.1045695,41 17,41 L13,41 C11.8954305,41 11,40.1045695 11,39 L11,35 C11,33.8954305 11.8954305,33 13,33 Z"></path>
                    </g>
                </g>
            </g>
        </g>
    </g>
</svg>