<?xml version="1.0" encoding="UTF-8"?>
<svg width="33px" height="34px" viewBox="0 0 33 34" version="1.1" xmlns="http://www.w3.org/2000/svg" xmlns:xlink="http://www.w3.org/1999/xlink">
    <!-- Generator: Sketch 61.1 (89650) - https://sketch.com -->
    <title>svg/bright/phone-outgoing</title>
    <desc>Created with Sketch.</desc>
    <g id="**-Sticker-Sheets" stroke="none" stroke-width="1" fill="none" fill-rule="evenodd" stroke-linecap="round" stroke-linejoin="round">
        <g id="sticker-sheet--all--page-5" transform="translate(-717.000000, -26.000000)" stroke="#00CFFF" stroke-width="2">
            <g id="icon-preview-row-copy-193">
                <g id="Icon-Row">
                    <g id="phone-outgoing" transform="translate(709.000000, 18.214286)">
                        <path d="M40,18.2142857 L40,9.10714286 L31,9.10714286 M30,19.2261905 L40,9.10714286 M37.9990894,33.1014925 L37.9990894,37.5191324 C38.0024224,38.3483898 37.6594195,39.1406394 37.0543471,39.7012475 C36.4492747,40.2618555 35.6382095,40.5388662 34.8204077,40.4642256 C30.3335584,39.971866 26.0236237,38.4234888 22.236911,35.9435075 C18.7138645,33.6826535 15.7269361,30.6661536 13.4882458,27.1082278 C11.0240064,23.2666541 9.49046009,18.8928823 9.0118454,14.3412488 C8.93817174,13.5179072 9.21054509,12.7012035 9.76243097,12.0906395 C10.3143169,11.4800755 11.0948942,11.1318757 11.913486,11.1309524 L16.2878186,11.1309524 C17.7515637,11.1165482 18.999177,12.2001181 19.2040404,13.6638773 C19.3886707,15.0776199 19.7310737,16.4657313 20.224718,17.8017333 C20.6253121,18.8779808 20.3690929,20.091258 19.5685681,20.9088066 L17.7167673,22.7789408 C19.792469,26.4655287 22.8149851,29.5179687 26.4654325,31.6142205 L28.3172333,29.7440863 C29.1267673,28.935636 30.3281504,28.6768802 31.3938472,29.0814403 C32.716752,29.5799718 34.0912554,29.9257646 35.4911387,30.1122229 C36.9573606,30.3211189 38.0358193,31.6065523 37.9990894,33.1014925 Z"></path>
                    </g>
                </g>
            </g>
        </g>
    </g>
</svg>