<?xml version="1.0" encoding="UTF-8"?>
<svg width="36px" height="35px" viewBox="0 0 36 35" version="1.1" xmlns="http://www.w3.org/2000/svg" xmlns:xlink="http://www.w3.org/1999/xlink">
    <!-- Generator: Sketch 61.1 (89650) - https://sketch.com -->
    <title>svg/bright/shopping-cart</title>
    <desc>Created with Sketch.</desc>
    <g id="**-Sticker-Sheets" stroke="none" stroke-width="1" fill="none" fill-rule="evenodd" stroke-linecap="round" stroke-linejoin="round">
        <g id="sticker-sheet--all--page-5" transform="translate(-713.000000, -3252.000000)" stroke="#00CFFF" stroke-width="2">
            <g id="icon-preview-row-copy-226" transform="translate(0.000000, 3227.000000)">
                <g id="Icon-Row">
                    <g id="shopping-cart" transform="translate(709.000000, 18.214286)">
                        <path d="M18,40 C18.3284271,40 19,39.3284271 19,39 C19,37.6715729 18.3284271,37 18,37 C16.6715729,37 16,37.6715729 16,39 C16,39.3284271 16.6715729,40 18,40 Z M35,40 C35.3284271,40 36,39.3284271 36,39 C36,37.6715729 35.3284271,37 35,37 C33.6715729,37 33,37.6715729 33,39 C33,39.3284271 33.6715729,40 35,40 Z M5,8 L11,8 L15,29 C15.6153208,30.9438017 16.9175934,32.0291041 18,32 L33,32 C34.9333157,32.0291041 36.2355883,30.9438017 37,29 L39,16 L13,16"></path>
                    </g>
                </g>
            </g>
        </g>
    </g>
</svg>