<?xml version="1.0" encoding="UTF-8"?>
<svg width="30px" height="31px" viewBox="0 0 30 31" version="1.1" xmlns="http://www.w3.org/2000/svg" xmlns:xlink="http://www.w3.org/1999/xlink">
    <!-- Generator: Sketch 61.1 (89650) - https://sketch.com -->
    <title>svg/black/trello</title>
    <desc>Created with Sketch.</desc>
    <g id="**-Sticker-Sheets" stroke="none" stroke-width="1" fill="none" fill-rule="evenodd" stroke-linecap="round" stroke-linejoin="round">
        <g id="sticker-sheet--top-hits--page-2" transform="translate(-423.000000, -2796.000000)" stroke="#000000" stroke-width="2">
            <g id="icon-preview-row-copy-255" transform="translate(1.000000, 2769.000000)">
                <g id="Icon-Row">
                    <g id="trello" transform="translate(413.000000, 18.214286)">
                        <path d="M12,10 L36,10 C37.1045695,10 38,10.8954305 38,12 L38,36 C38,37.1045695 37.1045695,38 36,38 L12,38 C10.8954305,38 10,37.1045695 10,36 L10,12 C10,10.8954305 10.8954305,10 12,10 Z M16,16 L21,16 L21,30 L16,30 L16,16 Z M27,16 L32,16 L32,24 L27,24 L27,16 Z"></path>
                    </g>
                </g>
            </g>
        </g>
    </g>
</svg>