<?xml version="1.0" encoding="UTF-8"?>
<svg width="39px" height="57px" viewBox="0 0 39 57" version="1.1" xmlns="http://www.w3.org/2000/svg" xmlns:xlink="http://www.w3.org/1999/xlink">
    <!-- Generator: Sketch 61.1 (89650) - https://sketch.com -->
    <title>svg/white/plant-full-grown--c</title>
    <desc>Created with Sketch.</desc>
    <g id="**-Sticker-Sheets" stroke="none" stroke-width="1" fill="none" fill-rule="evenodd" stroke-linecap="round" stroke-linejoin="round">
        <g id="sticker-sheet--top-hits--page-1" transform="translate(-869.000000, -2055.000000)" stroke="#FFFFFF" stroke-width="2">
            <g id="icon-preview-row-copy-22" transform="translate(0.000000, 2042.000000)">
                <g id="Icon-Row--Large-icon">
                    <g id="plant-full-grown--c" transform="translate(857.000000, 10.000000)">
                        <path d="M43,41.5 L40,57.1216216 C37.3333333,58.0405405 34.6666667,58.5 32,58.5 C29.3333333,58.5 26.6666667,58.0405405 24,57.1216216 L21,41.5 L21,41.5 M32,45 C38.0751322,45 43,43.4329966 43,41.5 C43,39.5670034 38.0751322,38 32,38 C25.9248678,38 21,39.5670034 21,41.5 C21,43.4329966 25.9248678,45 32,45 Z M32,41 L32,10 M31,4 C37.0751322,4 42,8.92486775 42,15 C42,15.0184156 41.9999547,15.0368206 41.9998643,15.0552149 C46.4997932,15.5522017 50,19.3673423 50,24 C50,28.9705627 45.9705627,33 41,33 C36.6933624,33 33.0932263,29.9751076 32.2083118,25.934043 C31.8117059,25.9777379 31.4084528,26 31,26 L31,26 L30.8494955,26.1962561 C29.0180525,28.5131892 26.1826579,30 23,30 C17.4771525,30 13,25.5228475 13,20 C13,15.1232902 16.4908373,11.0619092 21.1100206,10.1783481 C22.8972189,6.51998598 26.6543223,4 31,4 Z M32,24 C32,21.2385763 34.2385763,19 37,19 C39.7614237,19 42,21.2385763 42,24 M22,20 C22,17.2385763 24.2385763,15 27,15 C29.7614237,15 32,17.2385763 32,20"></path>
                    </g>
                </g>
            </g>
        </g>
    </g>
</svg>