<?xml version="1.0" encoding="UTF-8"?>
<svg width="42px" height="41px" viewBox="0 0 42 41" version="1.1" xmlns="http://www.w3.org/2000/svg" xmlns:xlink="http://www.w3.org/1999/xlink">
    <!-- Generator: Sketch 61.1 (89650) - https://sketch.com -->
    <title>svg/black/city-1--c</title>
    <desc>Created with Sketch.</desc>
    <g id="**-Sticker-Sheets" stroke="none" stroke-width="1" fill="none" fill-rule="evenodd" stroke-linecap="round" stroke-linejoin="round">
        <g id="sticker-sheet--all--page-2" transform="translate(-416.000000, -1041.000000)" stroke="#000000" stroke-width="2">
            <g id="icon-preview-row-copy-57" transform="translate(0.000000, 1020.000000)">
                <g id="Icon-Row">
                    <g id="city-1--c" transform="translate(413.000000, 18.214286)">
                        <path d="M9,15.1785714 L24,15.1785714 L24,42.5 L9,42.5 L9,15.1785714 Z M24,16.1904762 C24,12.2784592 20.6421356,9.10714286 17,9.10714286 C12.3578644,9.10714286 9,12.2784592 9,16.1904762 M24,22.2619048 L35.8815063,14.2466029 C36.7971958,13.6288759 38.0402754,13.8704222 38.6580024,14.7861116 C38.8809072,15.1165352 39,15.5060249 39,15.9046053 L39,42.5 L39,42.5 L24,42.5 L24,22.2619048 Z M4,42.5 L44,42.5 M29,25.2925595 L29,24.2907738 M34,25.2925595 L34,24.2907738 M34,31.3639881 L34,30.3622024 M34,37.4354167 L34,36.433631 M29,31.3639881 L29,30.3622024 M29,37.4354167 L29,36.433631 M14,18.2142857 L14,42.5 M19,18.2142857 L19,42.5 M16.5,8.60119048 L16.5,4.04761905"></path>
                    </g>
                </g>
            </g>
        </g>
    </g>
</svg>