<?xml version="1.0" encoding="UTF-8"?>
<svg width="30px" height="31px" viewBox="0 0 30 31" version="1.1" xmlns="http://www.w3.org/2000/svg" xmlns:xlink="http://www.w3.org/1999/xlink">
    <!-- Generator: Sketch 61.1 (89650) - https://sketch.com -->
    <title>svg/black/git-pull-request</title>
    <desc>Created with Sketch.</desc>
    <g id="**-Sticker-Sheets" stroke="none" stroke-width="1" fill="none" fill-rule="evenodd" stroke-linecap="round" stroke-linejoin="round">
        <g id="sticker-sheet--all--page-3" transform="translate(-422.000000, -2237.000000)" stroke="#000000" stroke-width="2">
            <g id="icon-preview-row-copy-121" transform="translate(0.000000, 2210.000000)">
                <g id="Icon-Row">
                    <g id="git-pull-request" transform="translate(413.000000, 18.214286)">
                        <path d="M33.5,38.452381 C35.9852814,38.452381 38,36.4136776 38,33.8988095 C38,31.3839415 35.9852814,29.3452381 33.5,29.3452381 C31.0147186,29.3452381 29,31.3839415 29,33.8988095 C29,36.4136776 31.0147186,38.452381 33.5,38.452381 Z M14.5,19.2261905 C16.9852814,19.2261905 19,17.1874871 19,14.672619 C19,12.157751 16.9852814,10.1190476 14.5,10.1190476 C12.0147186,10.1190476 10,12.157751 10,14.672619 C10,17.1874871 12.0147186,19.2261905 14.5,19.2261905 Z M25,15.1785714 L29.8,15.1785714 C31.5673112,15.1785714 33,16.5880454 33,18.3267196 L33,29.3452381 M15,19.2261905 L15,38.452381"></path>
                    </g>
                </g>
            </g>
        </g>
    </g>
</svg>