<?xml version="1.0" encoding="UTF-8"?>
<svg width="30px" height="31px" viewBox="0 0 30 31" version="1.1" xmlns="http://www.w3.org/2000/svg" xmlns:xlink="http://www.w3.org/1999/xlink">
    <!-- Generator: Sketch 61.1 (89650) - https://sketch.com -->
    <title>svg/black/instagram</title>
    <desc>Created with Sketch.</desc>
    <g id="**-Sticker-Sheets" stroke="none" stroke-width="1" fill="none" fill-rule="evenodd" stroke-linecap="round" stroke-linejoin="round">
        <g id="sticker-sheet--all--page-3" transform="translate(-422.000000, -3512.000000)" stroke="#000000" stroke-width="2">
            <g id="icon-preview-row-copy-136" transform="translate(0.000000, 3485.000000)">
                <g id="Icon-Row">
                    <g id="instagram" transform="translate(413.000000, 18.214286)">
                        <path d="M15,10.1190476 L33,10.1190476 C35.7614237,10.1190476 38,12.3576239 38,15.1190476 L38,33.452381 C38,36.2138047 35.7614237,38.452381 33,38.452381 L15,38.452381 C12.2385763,38.452381 10,36.2138047 10,33.452381 L10,15.1190476 C10,12.3576239 12.2385763,10.1190476 15,10.1190476 Z M29.9402568,22.9634811 C30.2882873,25.338421 29.0919485,27.6714841 26.9726026,28.7509093 C24.8532566,29.8303344 22.2887305,29.4127547 20.6110041,27.7150554 C18.9332777,26.017356 18.5206107,23.4222998 19.5873367,21.2777236 C20.6540627,19.1331473 22.9596781,17.9225664 25.3066775,18.2747402 C27.7031822,18.6343423 29.5848852,20.5384465 29.9402568,22.9634811 Z M31.5,16.6964286 L31.5,16.6964286"></path>
                    </g>
                </g>
            </g>
        </g>
    </g>
</svg>