<?xml version="1.0" encoding="UTF-8"?>
<svg width="31px" height="32px" viewBox="0 0 31 32" version="1.1" xmlns="http://www.w3.org/2000/svg" xmlns:xlink="http://www.w3.org/1999/xlink">
    <!-- Generator: Sketch 61.1 (89650) - https://sketch.com -->
    <title>svg/black/key</title>
    <desc>Created with Sketch.</desc>
    <g id="**-Sticker-Sheets" stroke="none" stroke-width="1" fill="none" fill-rule="evenodd" stroke-linecap="round" stroke-linejoin="round">
        <g id="sticker-sheet--all--page-3" transform="translate(-421.000000, -3681.000000)" stroke="#000000" stroke-width="2">
            <g id="icon-preview-row-copy-138" transform="translate(0.000000, 3655.000000)">
                <g id="Icon-Row">
                    <g id="key" transform="translate(413.000000, 18.214286)">
                        <path d="M36.5450471,9.10714286 L33.6351412,12.1920258 L36.5450471,9.10714286 Z M22.5629493,23.9300056 C24.6071073,26.068235 25.4137813,29.2037219 24.6767278,32.1461189 C23.9396742,35.0885159 21.7719157,37.3866251 18.9964138,38.1679988 C16.220912,38.9493725 13.2632726,38.094192 11.2463253,35.9271156 C8.21369827,32.5983974 8.2570691,27.3072333 11.343804,24.0348883 C14.4305389,20.7625433 19.4215838,20.7165645 22.5614943,23.9315481 L22.5629493,23.9300056 Z M22.5629493,23.9300056 L28.5428059,17.5905711 L22.5629493,23.9300056 Z M28.5428059,17.5905711 L32.9076647,22.2178956 L38,16.8193503 L33.6351412,12.1920258 L28.5428059,17.5905711 Z M28.5428059,17.5905711 L33.6351412,12.1920258 L28.5428059,17.5905711 Z"></path>
                    </g>
                </g>
            </g>
        </g>
    </g>
</svg>