<?xml version="1.0" encoding="UTF-8"?>
<svg width="34px" height="35px" viewBox="0 0 34 35" version="1.1" xmlns="http://www.w3.org/2000/svg" xmlns:xlink="http://www.w3.org/1999/xlink">
    <!-- Generator: Sketch 61.1 (89650) - https://sketch.com -->
    <title>svg/black/life-buoy</title>
    <desc>Created with Sketch.</desc>
    <g id="**-Sticker-Sheets" stroke="none" stroke-width="1" fill="none" fill-rule="evenodd" stroke-linecap="round" stroke-linejoin="round">
        <g id="sticker-sheet--all--page-3" transform="translate(-420.000000, -3935.000000)" stroke="#000000" stroke-width="2">
            <g id="icon-preview-row-copy-141" transform="translate(0.000000, 3910.000000)">
                <g id="Icon-Row">
                    <g id="life-buoy" transform="translate(413.000000, 18.214286)">
                        <path d="M24,40.4761905 C32.836556,40.4761905 40,33.2274674 40,24.2857143 C40,15.3439612 32.836556,8.0952381 24,8.0952381 C15.163444,8.0952381 8,15.3439612 8,24.2857143 C8,33.2274674 15.163444,40.4761905 24,40.4761905 Z M24.5,31.3690476 C28.0898509,31.3690476 31,28.4242539 31,24.7916667 C31,21.1590795 28.0898509,18.2142857 24.5,18.2142857 C20.9101491,18.2142857 18,21.1590795 18,24.7916667 C18,28.4242539 20.9101491,31.3690476 24.5,31.3690476 Z M13,13.1547619 L20,20.2380952 M28,28.3333333 L35,35.4166667 M28,20.2380952 L35,13.1547619 M28,20.2380952 L34,14.1666667 M13,35.4166667 L20,28.3333333"></path>
                    </g>
                </g>
            </g>
        </g>
    </g>
</svg>