<?xml version="1.0" encoding="UTF-8"?>
<svg width="31px" height="31px" viewBox="0 0 31 31" version="1.1" xmlns="http://www.w3.org/2000/svg" xmlns:xlink="http://www.w3.org/1999/xlink">
    <!-- Generator: Sketch 61.1 (89650) - https://sketch.com -->
    <title>svg/black/linkedin</title>
    <desc>Created with Sketch.</desc>
    <g id="**-Sticker-Sheets" stroke="none" stroke-width="1" fill="none" fill-rule="evenodd" stroke-linecap="round" stroke-linejoin="round">
        <g id="sticker-sheet--all--page-4" transform="translate(-422.000000, -112.000000)" stroke="#000000" stroke-width="2">
            <g id="icon-preview-row-copy-146" transform="translate(0.000000, 85.000000)">
                <g id="Icon-Row">
                    <g id="linkedin" transform="translate(413.000000, 18.214286)">
                        <path d="M30,19.2261905 C34.9705627,19.2261905 39,23.1990483 39,28.0998168 L39,38.452381 L33,38.452381 L33,28.0998168 C33,26.4662273 31.6568542,25.1419414 30,25.1419414 C28.3431458,25.1419414 27,26.4662273 27,28.0998168 L27,38.452381 L21,38.452381 L21,28.0998168 C21,23.1990483 25.0294373,19.2261905 30,19.2261905 Z M10,20.2380952 L16,20.2380952 L16,38.452381 L10,38.452381 L10,20.2380952 Z M13,16.1904762 C14.6568542,16.1904762 16,14.8313406 16,13.1547619 C16,11.4781832 14.6568542,10.1190476 13,10.1190476 C11.3431458,10.1190476 10,11.4781832 10,13.1547619 C10,14.8313406 11.3431458,16.1904762 13,16.1904762 Z"></path>
                    </g>
                </g>
            </g>
        </g>
    </g>
</svg>