<?xml version="1.0" encoding="UTF-8"?>
<svg width="34px" height="7px" viewBox="0 0 34 7" version="1.1" xmlns="http://www.w3.org/2000/svg" xmlns:xlink="http://www.w3.org/1999/xlink">
    <!-- Generator: Sketch 61.1 (89650) - https://sketch.com -->
    <title>svg/black/more-horizontal</title>
    <desc>Created with Sketch.</desc>
    <g id="**-Sticker-Sheets" stroke="none" stroke-width="1" fill="none" fill-rule="evenodd" stroke-linecap="round" stroke-linejoin="round">
        <g id="sticker-sheet--all--page-4" transform="translate(-420.000000, -2587.000000)" stroke="#000000" stroke-width="2">
            <g id="icon-preview-row-copy-173" transform="translate(0.000000, 2548.000000)">
                <g id="Icon-Row">
                    <g id="more-horizontal" transform="translate(413.000000, 18.214286)">
                        <path d="M24,26.3095238 C25.1045695,26.3095238 26,25.4034334 26,24.2857143 C26,23.1679951 25.1045695,22.2619048 24,22.2619048 C22.8954305,22.2619048 22,23.1679951 22,24.2857143 C22,25.4034334 22.8954305,26.3095238 24,26.3095238 Z M38,26.3095238 C39.1045695,26.3095238 40,25.4034334 40,24.2857143 C40,23.1679951 39.1045695,22.2619048 38,22.2619048 C36.8954305,22.2619048 36,23.1679951 36,24.2857143 C36,25.4034334 36.8954305,26.3095238 38,26.3095238 Z M10,26.3095238 C11.1045695,26.3095238 12,25.4034334 12,24.2857143 C12,23.1679951 11.1045695,22.2619048 10,22.2619048 C8.8954305,22.2619048 8,23.1679951 8,24.2857143 C8,25.4034334 8.8954305,26.3095238 10,26.3095238 Z"></path>
                    </g>
                </g>
            </g>
        </g>
    </g>
</svg>