<?xml version="1.0" encoding="UTF-8"?>
<svg width="32px" height="33px" viewBox="0 0 32 33" version="1.1" xmlns="http://www.w3.org/2000/svg" xmlns:xlink="http://www.w3.org/1999/xlink">
    <!-- Generator: Sketch 61.1 (89650) - https://sketch.com -->
    <title>svg/black/target</title>
    <desc>Created with Sketch.</desc>
    <g id="**-Sticker-Sheets" stroke="none" stroke-width="1" fill="none" fill-rule="evenodd" stroke-linecap="round" stroke-linejoin="round">
        <g id="sticker-sheet--all--page-6" transform="translate(-421.000000, -705.000000)" stroke="#000000" stroke-width="2">
            <g id="icon-preview-row-copy-246" transform="translate(0.000000, 679.000000)">
                <g id="Icon-Row">
                    <g id="target" transform="translate(413.000000, 18.214286)">
                        <path d="M24,39 C32.2842712,39 39,32.2842712 39,24 C39,15.7157288 32.2842712,9 24,9 C15.7157288,9 9,15.7157288 9,24 C9,32.2842712 15.7157288,39 24,39 Z M24,33 C28.9705627,33 33,28.9705627 33,24 C33,19.0294373 28.9705627,15 24,15 C19.0294373,15 15,19.0294373 15,24 C15,28.9705627 19.0294373,33 24,33 Z M24,27 C25.6568542,27 27,25.6568542 27,24 C27,22.3431458 25.6568542,21 24,21 C22.3431458,21 21,22.3431458 21,24 C21,25.6568542 22.3431458,27 24,27 Z"></path>
                    </g>
                </g>
            </g>
        </g>
    </g>
</svg>