<?xml version="1.0" encoding="UTF-8"?>
<svg width="35px" height="30px" viewBox="0 0 35 30" version="1.1" xmlns="http://www.w3.org/2000/svg" xmlns:xlink="http://www.w3.org/1999/xlink">
    <!-- Generator: Sketch 61.1 (89650) - https://sketch.com -->
    <title>svg/black/truck</title>
    <desc>Created with Sketch.</desc>
    <g id="**-Sticker-Sheets" stroke="none" stroke-width="1" fill="none" fill-rule="evenodd" stroke-linecap="round" stroke-linejoin="round">
        <g id="sticker-sheet--all--page-6" transform="translate(-420.000000, -1812.000000)" stroke="#000000" stroke-width="2">
            <g id="icon-preview-row-copy-259" transform="translate(0.000000, 1784.000000)">
                <g id="Icon-Row">
                    <g id="truck" transform="translate(413.000000, 18.214286)">
                        <path d="M10,11 L29,11 C30.1045695,11 31,11.8954305 31,13 L31,31 L31,31 L10,31 C8.8954305,31 8,30.1045695 8,29 L8,13 C8,11.8954305 8.8954305,11 10,11 Z M36.7142857,19 L41,23.5 L41,29 C41,30.1045695 40.1045695,31 39,31 L31,31 L31,31 L31,19 L36.7142857,19 Z M14.5,38 C16.4329966,38 18,36.4329966 18,34.5 C18,32.5670034 16.4329966,31 14.5,31 C12.5670034,31 11,32.5670034 11,34.5 C11,36.4329966 12.5670034,38 14.5,38 Z M34.5,38 C36.4329966,38 38,36.4329966 38,34.5 C38,32.5670034 36.4329966,31 34.5,31 C32.5670034,31 31,32.5670034 31,34.5 C31,36.4329966 32.5670034,38 34.5,38 Z"></path>
                    </g>
                </g>
            </g>
        </g>
    </g>
</svg>