<?xml version="1.0" encoding="UTF-8"?>
<svg width="22px" height="34px" viewBox="0 0 22 34" version="1.1" xmlns="http://www.w3.org/2000/svg" xmlns:xlink="http://www.w3.org/1999/xlink">
    <!-- Generator: Sketch 61.1 (89650) - https://sketch.com -->
    <title>svg/medium/figma</title>
    <desc>Created with Sketch.</desc>
    <g id="**-Sticker-Sheets" stroke="none" stroke-width="1" fill="none" fill-rule="evenodd" stroke-linecap="round" stroke-linejoin="round">
        <g id="sticker-sheet--all--page-3" transform="translate(-574.000000, -706.000000)" stroke="#046B99" stroke-width="2">
            <g id="icon-preview-row-copy-103" transform="translate(0.000000, 680.000000)">
                <g id="Icon-Row">
                    <g id="figma" transform="translate(561.000000, 18.214286)">
                        <path d="M14,14.1666667 C14,11.3723688 16.2385763,9.10714286 19,9.10714286 L24,9.10714286 L24,19.2261905 L19,19.2261905 C16.2385763,19.2261905 14,16.9609645 14,14.1666667 Z M24,9.10714286 L29,9.10714286 C30.7863279,9.10714286 32.436963,10.0714826 33.330127,11.6369047 C34.223291,13.2023269 34.223291,15.1310065 33.330127,16.6964286 C32.436963,18.2618507 30.7863279,19.2261905 29,19.2261905 L24,19.2261905 L24,9.10714286 Z M24,25.297619 C24,23.4900253 24.9529946,21.8197398 26.5,20.9159429 C28.0470054,20.012146 29.9529946,20.012146 31.5,20.9159429 C33.0470054,21.8197398 34,23.4900253 34,25.297619 C34,27.1052128 33.0470054,28.7754983 31.5,29.6792952 C29.9529946,30.5830921 28.0470054,30.5830921 26.5,29.6792952 C24.9529946,28.7754983 24,27.1052128 24,25.297619 L24,25.297619 Z M14,35.4166667 C14,32.6223688 16.2385763,30.3571429 19,30.3571429 L24,30.3571429 L24,35.4166667 C24,38.2109645 21.7614237,40.4761905 19,40.4761905 C16.2385763,40.4761905 14,38.2109645 14,35.4166667 Z M14,25.297619 C14,22.5033212 16.2385763,20.2380952 19,20.2380952 L24,20.2380952 L24,30.3571429 L19,30.3571429 C16.2385763,30.3571429 14,28.0919169 14,25.297619 Z"></path>
                    </g>
                </g>
            </g>
        </g>
    </g>
</svg>