<?xml version="1.0" encoding="UTF-8"?>
<svg width="30px" height="31px" viewBox="0 0 30 31" version="1.1" xmlns="http://www.w3.org/2000/svg" xmlns:xlink="http://www.w3.org/1999/xlink">
    <!-- Generator: Sketch 61.1 (89650) - https://sketch.com -->
    <title>svg/medium/message-circle</title>
    <desc>Created with Sketch.</desc>
    <g id="**-Sticker-Sheets" stroke="none" stroke-width="1" fill="none" fill-rule="evenodd" stroke-linecap="round" stroke-linejoin="round">
        <g id="sticker-sheet--all--page-4" transform="translate(-570.000000, -1387.000000)" stroke="#046B99" stroke-width="2">
            <g id="icon-preview-row-copy-161" transform="translate(0.000000, 1360.000000)">
                <g id="Icon-Row">
                    <g id="message-circle" transform="translate(561.000000, 18.214286)">
                        <path d="M38,23.4987009 C38.0053087,25.5762673 37.5256191,27.6257349 36.5999579,29.4801729 C34.3614534,34.012441 29.7849359,36.8763488 24.7777544,36.8783094 C22.7246299,36.8837261 20.6992737,36.3983259 18.8666526,35.4616449 L10,38.452381 L12.9555509,29.4801729 C12.0298897,27.6257349 11.5502,25.5762673 11.5555531,23.4987009 C11.5574906,18.4319101 14.3877054,13.8009102 18.8666526,11.5357569 C20.6992737,10.5990759 22.7246299,10.1136757 24.7777544,10.1190476 L25.5555309,10.1190476 C32.2690016,10.4938784 37.629579,15.9182722 38,22.7116651 L38,23.4987009 L38,23.4987009 Z"></path>
                    </g>
                </g>
            </g>
        </g>
    </g>
</svg>