<?xml version="1.0" encoding="UTF-8"?>
<svg width="44px" height="45px" viewBox="0 0 44 45" version="1.1" xmlns="http://www.w3.org/2000/svg" xmlns:xlink="http://www.w3.org/1999/xlink">
    <!-- Generator: Sketch 61.1 (89650) - https://sketch.com -->
    <title>svg/medium/mic-off</title>
    <desc>Created with Sketch.</desc>
    <g id="**-Sticker-Sheets" stroke="none" stroke-width="1" fill="none" fill-rule="evenodd" stroke-linecap="round" stroke-linejoin="round">
        <g id="sticker-sheet--all--page-4" transform="translate(-563.000000, -1720.000000)" stroke="#046B99" stroke-width="2">
            <g id="icon-preview-row-copy-165" transform="translate(0.000000, 1700.000000)">
                <g id="Icon-Row">
                    <g id="mic-off" transform="translate(561.000000, 18.214286)">
                        <path d="M3,3.03571429 L45,45.5357143 M19,19.2261905 L19,24.2878667 C19.0018748,26.3337399 20.286684,28.1773651 22.2560065,28.9600434 C24.2253291,29.7427218 26.4918896,29.3105363 28,27.8647846 M29,20.2380952 L29,11.1708163 C29.0026051,8.55376979 27.038642,6.36051962 24.4570653,6.0975097 C21.8754886,5.83449979 19.516335,7.58731272 19,10.1520209 M32,32.1276518 C28.8380682,35.3179767 24.0335739,36.2916106 19.8568099,34.588477 C15.6800459,32.8853435 12.967244,28.8464276 13.0002987,24.3802595 L13.0002987,21.25 M35.11,21.25 L35.11,24.3828321 C35.1092815,25.0288847 35.0356618,25.6736235 34.89,26.3095238 M24,36.4285714 L24,42.5 M18,42.5 L30,42.5"></path>
                    </g>
                </g>
            </g>
        </g>
    </g>
</svg>