<?xml version="1.0" encoding="UTF-8"?>
<svg width="58px" height="52px" viewBox="0 0 58 52" version="1.1" xmlns="http://www.w3.org/2000/svg" xmlns:xlink="http://www.w3.org/1999/xlink">
    <!-- Generator: Sketch 61.1 (89650) - https://sketch.com -->
    <title>svg/medium/monitor-layout-2--c</title>
    <desc>Created with Sketch.</desc>
    <g id="**-Sticker-Sheets" stroke="none" stroke-width="1" fill="none" fill-rule="evenodd" stroke-linecap="round" stroke-linejoin="round">
        <g id="sticker-sheet--all--page-4" transform="translate(-564.000000, -2395.000000)" stroke="#046B99" stroke-width="2">
            <g id="icon-preview-row-copy-21" transform="translate(0.000000, 2379.000000)">
                <g id="Icon-Row--Large-icon">
                    <g id="monitor-layout-2--c" transform="translate(561.000000, 10.000000)">
                        <path d="M14.2173913,20 L47.2173913,20 M14.2173913,25 L39.2173913,25 M31,31 L35,31 C36.1045695,31 37,31.8954305 37,33 L37,37 C37,38.1045695 36.1045695,39 35,39 L31,39 C29.8954305,39 29,38.1045695 29,37 L29,33 C29,31.8954305 29.8954305,31 31,31 Z M46,31 L50,31 C51.1045695,31 52,31.8954305 52,33 L52,37 C52,38.1045695 51.1045695,39 50,39 L46,39 C44.8954305,39 44,38.1045695 44,37 L44,33 C44,31.8954305 44.8954305,31 46,31 Z M16,31 L20,31 C21.1045695,31 22,31.8954305 22,33 L22,37 C22,38.1045695 21.1045695,39 20,39 L16,39 C14.8954305,39 14,38.1045695 14,37 L14,33 C14,31.8954305 14.8954305,31 16,31 Z M6,7 L58,7 C59.1045695,7 60,7.8954305 60,9 L60,44 C60,45.1045695 59.1045695,46 58,46 L6,46 C4.8954305,46 4,45.1045695 4,44 L4,9 C4,7.8954305 4.8954305,7 6,7 Z M21,57 L43,57 M32,46 L32,57 M5,13 L60,13"></path>
                    </g>
                </g>
            </g>
        </g>
    </g>
</svg>