<?xml version="1.0" encoding="UTF-8"?>
<svg width="30px" height="31px" viewBox="0 0 30 31" version="1.1" xmlns="http://www.w3.org/2000/svg" xmlns:xlink="http://www.w3.org/1999/xlink">
    <!-- Generator: Sketch 61.1 (89650) - https://sketch.com -->
    <title>svg/medium/printer</title>
    <desc>Created with Sketch.</desc>
    <g id="**-Sticker-Sheets" stroke="none" stroke-width="1" fill="none" fill-rule="evenodd" stroke-linecap="round" stroke-linejoin="round">
        <g id="sticker-sheet--all--page-5" transform="translate(-570.000000, -1299.000000)" stroke="#046B99" stroke-width="2">
            <g id="icon-preview-row-copy-205" transform="translate(0.000000, 1272.000000)">
                <g id="Icon-Row">
                    <g id="printer" transform="translate(561.000000, 18.214286)">
                        <path d="M16,20.2380952 L16,10.1190476 L33,10.1190476 L33,20.2380952 M15.6,33.3928571 L12.8,33.3928571 C11.2536027,33.3928571 10,32.0840599 10,30.4695767 L10,23.1613757 C10,21.5468925 11.2536027,20.2380952 12.8,20.2380952 L35.2,20.2380952 C36.7463973,20.2380952 38,21.5468925 38,23.1613757 L38,30.4695767 C38,32.0840599 36.7463973,33.3928571 35.2,33.3928571 L33,33.3928571 M16,27.3214286 L33,27.3214286 L33,38.452381 L16,38.452381 L16,27.3214286 Z"></path>
                    </g>
                </g>
            </g>
        </g>
    </g>
</svg>