<?xml version="1.0" encoding="UTF-8"?>
<svg width="24px" height="37px" viewBox="0 0 24 37" version="1.1" xmlns="http://www.w3.org/2000/svg" xmlns:xlink="http://www.w3.org/1999/xlink">
    <!-- Generator: Sketch 61.1 (89650) - https://sketch.com -->
    <title>svg/medium/watch</title>
    <desc>Created with Sketch.</desc>
    <g id="**-Sticker-Sheets" stroke="none" stroke-width="1" fill="none" fill-rule="evenodd" stroke-linecap="round" stroke-linejoin="round">
        <g id="sticker-sheet--all--page-6" transform="translate(-573.000000, -4017.000000)" stroke="#046B99" stroke-width="2">
            <g id="icon-preview-row-copy-280" transform="translate(0.000000, 3993.000000)">
                <g id="Icon-Row">
                    <g id="watch" transform="translate(561.000000, 18.214286)">
                        <path d="M24,35 C30.0751322,35 35,30.0751322 35,24 C35,17.9248678 30.0751322,13 24,13 C17.9248678,13 13,17.9248678 13,24 C13,30.0751322 17.9248678,35 24,35 Z M24,19 L24,23.6666667 L26,26 M30.9690608,32.2681567 L30.4276243,38.1872297 C30.2831289,39.7848037 28.9393398,41.006457 27.3337017,40.9999743 L20.6353591,40.9999743 C19.0297209,41.006457 17.6859319,39.7848037 17.5414365,38.1872297 L17,32.2681567 M17.0154696,15.7318433 L17.5569061,9.8127703 C17.7008791,8.22111081 19.0356517,7.00155671 20.6353591,7.00002568 L27.3646409,7.00002568 C28.9702791,6.99354301 30.3140681,8.21519627 30.4585635,9.8127703 L31,15.7318433"></path>
                    </g>
                </g>
            </g>
        </g>
    </g>
</svg>