<?xml version="1.0" encoding="UTF-8"?>
<svg width="42px" height="30px" viewBox="0 0 42 30" version="1.1" xmlns="http://www.w3.org/2000/svg" xmlns:xlink="http://www.w3.org/1999/xlink">
    <!-- Generator: Sketch 61.1 (89650) - https://sketch.com -->
    <title>svg/medium/youtube</title>
    <desc>Created with Sketch.</desc>
    <g id="**-Sticker-Sheets" stroke="none" stroke-width="1" fill="none" fill-rule="evenodd" stroke-linecap="round" stroke-linejoin="round">
        <g id="sticker-sheet--page-7" transform="translate(-564.000000, -283.000000)" stroke="#046B99" stroke-width="2">
            <g id="icon-preview-row-copy-288" transform="translate(0.000000, 255.000000)">
                <g id="Icon-Row">
                    <g id="youtube" transform="translate(561.000000, 18.214286)">
                        <path d="M43,15 C42.7230466,13.5393122 41.3776392,12.2069521 40,12 C36.5084409,11 24,11 24,11 C24,11 11.4915591,11 8,12 C6.62236081,12.2768098 5.27695339,13.6091699 5,15 C4.26505205,18.3447606 3.98510545,21.4372809 4,25 C3.98063908,27.6559 4.26060342,30.7720019 5,34 C5.32160759,35.4768383 6.65914454,36.7484217 8,37 C11.4915591,38 24,38 24,38 C24,38 36.5084409,38 40,37 C41.3776392,36.7231902 42.7230466,35.3908301 43,34 C43.7305331,30.6781946 44.0104621,27.6092513 44,25 C44.0193609,21.4139577 43.7393966,18.2978558 43,15 Z M19,29 L30,24 L19,19 L19,29 L19,29 Z"></path>
                    </g>
                </g>
            </g>
        </g>
    </g>
</svg>