<?xml version="1.0" encoding="UTF-8"?>
<svg width="36px" height="32px" viewBox="0 0 36 32" version="1.1" xmlns="http://www.w3.org/2000/svg" xmlns:xlink="http://www.w3.org/1999/xlink">
    <!-- Generator: Sketch 61.1 (89650) - https://sketch.com -->
    <title>svg/bright/alert-triangle</title>
    <desc>Created with Sketch.</desc>
    <g id="**-Sticker-Sheets" stroke="none" stroke-width="1" fill="none" fill-rule="evenodd" stroke-linecap="round" stroke-linejoin="round">
        <g id="sticker-sheet--top-hits--page-1" transform="translate(-715.000000, -198.000000)" stroke="#00CFFF" stroke-width="2">
            <g id="icon-preview-row" transform="translate(0.000000, 172.000000)">
                <g id="Icon-Row">
                    <g id="alert-triangle" transform="translate(709.000000, 18.214286)">
                        <path d="M21.2176544,10.5422842 L7.43609436,33.1940988 C6.85788979,34.1799487 6.85443757,35.3938349 7.42702573,36.3828573 C7.9996139,37.3718797 9.06224037,37.9874883 10.21844,38 L37.78156,38 C38.9377596,37.9874883 40.0003861,37.3718797 40.5729743,36.3828573 C41.1455624,35.3938349 41.1421102,34.1799487 40.5639056,33.1940988 L26.7823456,10.5422842 C26.1924141,9.58475856 25.137485,9 24,9 C22.862515,9 21.8075859,9.58475856 21.2176544,10.5422842 Z M24,20 L24,26 M24.01,32 L23.99,32"></path>
                    </g>
                </g>
            </g>
        </g>
    </g>
</svg>