<?xml version="1.0" encoding="UTF-8"?>
<svg width="28px" height="43px" viewBox="0 0 28 43" version="1.1" xmlns="http://www.w3.org/2000/svg" xmlns:xlink="http://www.w3.org/1999/xlink">
    <!-- Generator: Sketch 61.1 (89650) - https://sketch.com -->
    <title>svg/bright/award-2--c</title>
    <desc>Created with Sketch.</desc>
    <g id="**-Sticker-Sheets" stroke="none" stroke-width="1" fill="none" fill-rule="evenodd" stroke-linecap="round" stroke-linejoin="round">
        <g id="sticker-sheet--top-hits--page-2" transform="translate(-716.000000, -4165.000000)" stroke="#00CFFF" stroke-width="2">
            <g id="icon-preview-row-copy-22" transform="translate(-3.000000, 4144.000000)">
                <g id="Icon-Row">
                    <g id="award-2--c" transform="translate(709.000000, 18.214286)">
                        <path d="M24,29 C31.1797017,29 37,23.4035594 37,16.5 C37,9.59644063 31.1797017,4 24,4 C16.8202983,4 11,9.59644063 11,16.5 C11,23.4035594 16.8202983,29 24,29 Z M17.178,28.0175439 L15,44 L24,38.7368421 L33,44 L30.822,28 M24,10 L25.854,13.9495268 L30,14.5867508 L27,17.659306 L27.708,22 L24,19.9495268 L20.292,22 L21,17.659306 L18,14.5867508 L22.146,13.9495268 L24,10 L24,10 Z"></path>
                    </g>
                </g>
            </g>
        </g>
    </g>
</svg>