<?xml version="1.0" encoding="UTF-8"?>
<svg width="31px" height="31px" viewBox="0 0 31 31" version="1.1" xmlns="http://www.w3.org/2000/svg" xmlns:xlink="http://www.w3.org/1999/xlink">
    <!-- Generator: Sketch 61.1 (89650) - https://sketch.com -->
    <title>svg/bright/coffee</title>
    <desc>Created with Sketch.</desc>
    <g id="**-Sticker-Sheets" stroke="none" stroke-width="1" fill="none" fill-rule="evenodd" stroke-linecap="round" stroke-linejoin="round">
        <g id="sticker-sheet--top-hits--page-1" transform="translate(-718.000000, -1049.000000)" stroke="#00CFFF" stroke-width="2">
            <g id="icon-preview-row-copy-70" transform="translate(0.000000, 1022.000000)">
                <g id="Icon-Row">
                    <g id="coffee" transform="translate(709.000000, 18.214286)">
                        <path d="M32,20.2380952 L33.4,20.2380952 C36.4927946,20.2380952 39,22.7298438 39,25.8035714 C39,28.8772991 36.4927946,31.3690476 33.4,31.3690476 L32,31.3690476 M10,20.2380952 L32,20.2380952 L32,32.8479853 C32,35.9432076 29.5375661,38.452381 26.5,38.452381 L15.5,38.452381 C12.4624339,38.452381 10,35.9432076 10,32.8479853 L10,20.2380952 Z M16,10.1190476 L16,14.1666667 M21,10.1190476 L21,14.1666667 M26,10.1190476 L26,14.1666667"></path>
                    </g>
                </g>
            </g>
        </g>
    </g>
</svg>