<?xml version="1.0" encoding="UTF-8" standalone="no"?>
<!-- Created with Inkscape (http://www.inkscape.org/) -->

<svg
   xmlns:dc="http://purl.org/dc/elements/1.1/"
   xmlns:cc="http://creativecommons.org/ns#"
   xmlns:rdf="http://www.w3.org/1999/02/22-rdf-syntax-ns#"
   xmlns:svg="http://www.w3.org/2000/svg"
   xmlns="http://www.w3.org/2000/svg"
   xmlns:sodipodi="http://sodipodi.sourceforge.net/DTD/sodipodi-0.dtd"
   xmlns:inkscape="http://www.inkscape.org/namespaces/inkscape"
   width="145mm"
   height="60mm"
   viewBox="0 0 145 60"
   version="1.1"
   id="svg8"
   inkscape:version="0.92.5 (2060ec1f9f, 2020-04-08)"
   sodipodi:docname="accessible_CA.svg">
  <defs
     id="defs2" />
  <sodipodi:namedview
     id="base"
     pagecolor="#ffffff"
     bordercolor="#666666"
     borderopacity="1.0"
     inkscape:pageopacity="0.0"
     inkscape:pageshadow="2"
     inkscape:zoom="2"
     inkscape:cx="312.71692"
     inkscape:cy="181.71776"
     inkscape:document-units="mm"
     inkscape:current-layer="layer1"
     showgrid="false"
     showguides="true"
     inkscape:guide-bbox="true"
     inkscape:window-width="2020"
     inkscape:window-height="1240"
     inkscape:window-x="0"
     inkscape:window-y="0"
     inkscape:window-maximized="1"
     units="mm" />
  <metadata
     id="metadata5">
    <rdf:RDF>
      <cc:Work
         rdf:about="">
        <dc:format>image/svg+xml</dc:format>
        <dc:type
           rdf:resource="http://purl.org/dc/dcmitype/StillImage" />
        <dc:title></dc:title>
      </cc:Work>
    </rdf:RDF>
  </metadata>
  <g
     inkscape:label="Layer 1"
     inkscape:groupmode="layer"
     id="layer1"
     transform="translate(0,-237)">
    <path
       inkscape:connector-curvature="0"
       style="fill:#d83933;stroke-width:0.26458332"
       d="m -160.88878,-48.999115 h 2.43153 c 1.68751,0 2.30346,0.456935 2.80008,2.040996 l 11.91763,37.980673 3.66818,11.552766 c 0.26591,0.842698 -0.29342,1.766623 -1.23296,1.803665 -1.85764,0.07329 -3.71501,0.0635 -5.56471,-0.01164 -0.86122,-0.03519 -1.32186,-0.683683 -1.57586,-1.496218 l -3.75312,-11.9552 c -0.22278,-0.747184 -0.53393,-0.993246 -1.31603,-0.993246 h -14.89366 c -0.77629,-0.0058 -1.10464,0.23151 -1.33245,0.98425 l -3.61738,11.573404 c -0.50244,1.60364 -0.94641,1.953154 -2.60165,1.960827 h -3.74941 c -1.8878,-0.0087 -2.45401,-0.751946 -1.89574,-2.538942 l 4.87945,-15.515695 10.51851,-33.334855 c 0.50747,-1.607343 1.11733,-2.050785 2.78818,-2.050785 h 2.52915 z m 0.0979,12.519554 h -0.29342 l -5.9862,19.169063 h 12.26767 z m -49.45777,14.727767 -0.0354,14.254691 c -0.0741,2.792678 2.0611,5.484548 5.20858,5.300134 2.77681,-0.161925 5.57054,-0.02355 8.35608,-0.03704 2.73632,-0.01376 4.73895,-2.044171 4.78684,-4.840552 l 0.0183,-3.13399 c 0.0394,-1.202002 0.55218,-1.756304 1.69995,-1.785672 a 92.577708,92.577708 0 0 1 4.57755,0 c 0.99113,0.02646 1.63275,0.575733 1.62507,1.5494 -0.0135,1.98067 0.0818,4.009231 -0.29289,5.932487 -1.05066,5.40067497 -5.33638,9.018852 -11.25167,9.347729 A 95.961729,95.961729 0 0 1 -207.48428,4.73776 C -212.88416,4.365756 -217.1937,0.13004097 -218.061,-5.278307 a 18.639896,18.639896 0 0 1 -0.24289,-2.905654 l -0.0124,-27.802946 c 0,-6.890808 5.15196,-12.285662 11.93932,-12.421129 3.5478,-0.07117 7.10168,-0.09763 10.64763,0.0069 6.47832,0.195263 12.05838,5.359665 11.79433,12.274815 -0.0355,0.941652 0.0124,1.887008 -0.0116,2.829719 -0.027,1.116277 -0.45429,1.692804 -1.51554,1.743604 -1.65391,0.0799 -3.31549,0.06059 -4.97125,0 -0.9279,-0.03413 -1.44066,-0.641086 -1.46765,-1.590411 -0.0318,-1.11125 -0.01,-2.223823 -0.0347,-3.336131 -0.0595,-2.752461 -2.11296,-4.836848 -4.82256,-4.856163 a 549.13477,549.13477 0 0 0 -8.65849,0 c -2.82469,0.02143 -4.81568,2.041261 -4.82811,4.923632 l -0.004,14.660562 z"
       id="path4" />
    <g
       id="g4558"
       transform="translate(-48.154168,233.36249)">
      <path
         id="path4-3"
         d="m 171.20111,7.0166608 h 2.43152 c 1.68751,0 2.30346,0.4569353 2.80008,2.0409963 l 11.91763,37.9806729 3.66818,11.552766 c 0.26591,0.842698 -0.29342,1.766623 -1.23296,1.803665 -1.85764,0.07329 -3.71501,0.0635 -5.56471,-0.01164 -0.86122,-0.03519 -1.32186,-0.683683 -1.57586,-1.496218 l -3.75312,-11.9552 c -0.22278,-0.747184 -0.53393,-0.993246 -1.31603,-0.993246 h -14.89366 c -0.77629,-0.0058 -1.10464,0.23151 -1.33245,0.98425 l -3.61738,11.573404 c -0.50244,1.60364 -0.94641,1.953154 -2.60165,1.960827 h -3.74941 c -1.8878,-0.0087 -2.45401,-0.751946 -1.89574,-2.538942 L 155.365,42.402301 165.88351,9.0674461 c 0.50747,-1.607344 1.11733,-2.0507853 2.78818,-2.0507853 h 2.52915 z m 0.0979,12.5195542 h -0.29343 l -5.9862,19.169063 h 12.26767 z m -49.45778,14.727767 -0.0354,14.254691 c -0.0741,2.792678 2.06111,5.484548 5.20859,5.300134 2.7768,-0.161925 5.57054,-0.02355 8.35607,-0.03704 2.73632,-0.01376 4.73895,-2.044171 4.78684,-4.840552 l 0.0183,-3.13399 c 0.0394,-1.202002 0.55219,-1.756304 1.69995,-1.785672 a 92.577708,92.577708 0 0 1 4.57756,0 c 0.99112,0.02646 1.63274,0.575733 1.62507,1.5494 -0.0135,1.98067 0.0818,4.009231 -0.2929,5.932487 -1.05066,5.400675 -5.33638,9.018852 -11.25167,9.347729 a 95.961729,95.961729 0 0 1 -11.92795,-0.09763 c -5.39988,-0.372004 -9.70942,-4.607719 -10.57672,-10.016067 a 18.639896,18.639896 0 0 1 -0.24289,-2.905654 l -0.0124,-27.802946 c 0,-6.890808 5.15197,-12.2856619 11.93933,-12.4211289 3.54779,-0.07117 7.10168,-0.09763 10.64762,0.0069 6.47833,0.195262 12.05839,5.3596639 11.79433,12.2748149 -0.0354,0.941652 0.0124,1.887008 -0.0116,2.829719 -0.027,1.116277 -0.45429,1.692804 -1.51553,1.743604 -1.65391,0.0799 -3.31549,0.06059 -4.97126,0 -0.92789,-0.03413 -1.44065,-0.641086 -1.46764,-1.590411 -0.0317,-1.11125 -0.01,-2.223823 -0.0347,-3.336131 -0.0595,-2.752461 -2.11296,-4.836848 -4.82256,-4.856163 a 549.13477,549.13477 0 0 0 -8.65849,0 c -2.82469,0.02143 -4.81568,2.041261 -4.82812,4.923632 l -0.004,14.660562 z"
         style="fill:#d83933;stroke-width:0.26458332"
         inkscape:connector-curvature="0" />
      <path
         style="fill:#d83933;fill-opacity:1;stroke-width:0.11453812"
         id="path2"
         d="m 79.110417,11.369484 c 13.858285,0 25.075673,10.123468 25.075673,22.634676 0,12.50925 -11.215212,22.634677 -25.075673,22.634677 -13.858286,0 -25.075677,-10.12347 -25.075677,-22.634677 0,-12.50925 11.215216,-22.634676 25.075677,-22.634676 m 0,-4.3528232 c -16.512214,0 -29.897914,12.0826732 -29.897914,26.9874992 0,14.904824 13.3857,26.987491 29.897914,26.987491 16.512205,0 29.897913,-12.082667 29.897913,-26.987491 0,-14.904826 -13.385708,-26.9874992 -29.897913,-26.9874992 z m 0,6.0939522 c -12.783656,0 -23.146776,9.354324 -23.146776,20.893547 0,11.539223 10.36312,20.893546 23.146776,20.893546 12.783647,0 23.146773,-9.354323 23.146773,-20.893546 0,-11.539223 -10.363126,-20.893547 -23.146773,-20.893547 z m 0,4.788104 c 2.396891,0 4.340024,1.75397 4.340024,3.91754 0,2.16357 -1.943133,3.917541 -4.340024,3.917541 -2.3969,0 -4.340015,-1.753971 -4.340015,-3.917541 0,-2.16357 1.943115,-3.91754 4.340015,-3.91754 z m 14.194396,10.666918 c -3.46141,0.737694 -6.69219,1.387244 -9.902478,1.720126 0.102592,10.993379 1.483563,13.390587 3.018366,16.934764 0.436053,1.007679 -0.115379,2.143544 -1.231725,2.537152 -1.116466,0.393607 -2.374835,-0.104145 -2.810888,-1.11182 -1.049439,-2.427569 -2.05982,-4.422033 -2.683699,-8.547746 h -1.167707 c -0.62291,4.118967 -1.631609,6.116585 -2.683817,8.547746 -0.435815,1.007137 -1.693819,1.505636 -2.810769,1.11182 -1.116347,-0.393608 -1.667769,-1.529584 -1.231717,-2.537152 1.532628,-3.541129 2.915646,-5.935183 3.018358,-16.934764 -3.210288,-0.332773 -6.441069,-0.982324 -9.902598,-1.720126 -1.036779,-0.221015 -1.678866,-1.158722 -1.434021,-2.094687 0.244853,-0.935966 1.283569,-1.515435 2.320595,-1.294421 11.656085,2.484265 14.983069,2.479259 26.615773,0 1.036661,-0.220906 2.075734,0.358455 2.320587,1.294421 0.244606,0.935965 -0.39748,1.873781 -1.43426,2.094687 z"
         inkscape:connector-curvature="0" />
    </g>
  </g>
</svg>
