<?xml version="1.0" encoding="UTF-8"?>
<svg width="36px" height="37px" viewBox="0 0 36 37" version="1.1" xmlns="http://www.w3.org/2000/svg" xmlns:xlink="http://www.w3.org/1999/xlink">
    <!-- Generator: Sketch 61.1 (89650) - https://sketch.com -->
    <title>svg/white/chrome</title>
    <desc>Created with Sketch.</desc>
    <g id="**-Sticker-Sheets" stroke="none" stroke-width="1" fill="none" fill-rule="evenodd" stroke-linecap="round" stroke-linejoin="round">
        <g id="sticker-sheet--all--page-2" transform="translate(-863.000000, -874.000000)" stroke="#FFFFFF" stroke-width="2">
            <g id="icon-preview-row-copy-55" transform="translate(0.000000, 850.000000)">
                <g id="Icon-Row">
                    <g id="chrome" transform="translate(857.000000, 18.214286)">
                        <path d="M24,41.4880952 C33.3888407,41.4880952 41,33.7863269 41,24.2857143 C41,14.7851016 33.3888407,7.08333333 24,7.08333333 C14.6111593,7.08333333 7,14.7851016 7,24.2857143 C7,33.7863269 14.6111593,41.4880952 24,41.4880952 Z M24,31.3690476 C27.8659932,31.3690476 31,28.1977313 31,24.2857143 C31,20.3736973 27.8659932,17.202381 24,17.202381 C20.1340068,17.202381 17,20.3736973 17,24.2857143 C17,28.1977313 20.1340068,31.3690476 24,31.3690476 Z M40,17.202381 L24,17.202381 M10,14.1666667 L18,27.3214286 M22,41.4880952 L30,28.3333333"></path>
                    </g>
                </g>
            </g>
        </g>
    </g>
</svg>