<?xml version="1.0" encoding="UTF-8"?>
<svg width="30px" height="31px" viewBox="0 0 30 31" version="1.1" xmlns="http://www.w3.org/2000/svg" xmlns:xlink="http://www.w3.org/1999/xlink">
    <!-- Generator: Sketch 61.1 (89650) - https://sketch.com -->
    <title>svg/white/headphones</title>
    <desc>Created with Sketch.</desc>
    <g id="**-Sticker-Sheets" stroke="none" stroke-width="1" fill="none" fill-rule="evenodd" stroke-linecap="round" stroke-linejoin="round">
        <g id="sticker-sheet--all--page-3" transform="translate(-866.000000, -2832.000000)" stroke="#FFFFFF" stroke-width="2">
            <g id="icon-preview-row-copy-128" transform="translate(0.000000, 2805.000000)">
                <g id="Icon-Row">
                    <g id="headphones" transform="translate(857.000000, 18.214286)">
                        <path d="M10,33.3928571 L10,24.0833333 C10,16.3710712 16.2680136,10.1190476 24,10.1190476 C31.7319864,10.1190476 38,16.3710712 38,24.0833333 L38,33.3928571 M38,35.2721088 C38,37.0285246 36.6071081,38.452381 34.8888889,38.452381 L33.3333333,38.452381 C31.6151141,38.452381 30.2222222,37.0285246 30.2222222,35.2721088 L30.2222222,30.5017007 C30.2222222,28.7452849 31.6151141,27.3214286 33.3333333,27.3214286 L38,27.3214286 L38,35.2721088 Z M10,35.2721088 C10,37.0285246 11.3928919,38.452381 13.1111111,38.452381 L14.6666667,38.452381 C16.3848859,38.452381 17.7777778,37.0285246 17.7777778,35.2721088 L17.7777778,30.5017007 C17.7777778,28.7452849 16.3848859,27.3214286 14.6666667,27.3214286 L10,27.3214286 L10,35.2721088 Z"></path>
                    </g>
                </g>
            </g>
        </g>
    </g>
</svg>