<?xml version="1.0" encoding="UTF-8"?>
<svg width="30px" height="37px" viewBox="0 0 30 37" version="1.1" xmlns="http://www.w3.org/2000/svg" xmlns:xlink="http://www.w3.org/1999/xlink">
    <!-- Generator: Sketch 61.1 (89650) - https://sketch.com -->
    <title>svg/white/map-pin</title>
    <desc>Created with Sketch.</desc>
    <g id="**-Sticker-Sheets" stroke="none" stroke-width="1" fill="none" fill-rule="evenodd" stroke-linecap="round" stroke-linejoin="round">
        <g id="sticker-sheet--all--page-4" transform="translate(-866.000000, -959.000000)" stroke="#FFFFFF" stroke-width="2">
            <g id="icon-preview-row-copy-156" transform="translate(0.000000, 935.000000)">
                <g id="Icon-Row">
                    <g id="map-pin" transform="translate(857.000000, 18.214286)">
                        <path d="M38,21.1580085 C38,32.1049783 24,41.4880952 24,41.4880952 C24,41.4880952 10,32.1049783 10,21.1580085 C10,13.38478 16.2680136,7.08333333 24,7.08333333 C31.7319864,7.08333333 38,13.38478 38,21.1580085 L38,21.1580085 Z M24.5,25.297619 C26.9852814,25.297619 29,23.2589157 29,20.7440476 C29,18.2291796 26.9852814,16.1904762 24.5,16.1904762 C22.0147186,16.1904762 20,18.2291796 20,20.7440476 C20,23.2589157 22.0147186,25.297619 24.5,25.297619 Z"></path>
                    </g>
                </g>
            </g>
        </g>
    </g>
</svg>