<?xml version="1.0" encoding="UTF-8"?>
<svg width="32px" height="33px" viewBox="0 0 32 33" version="1.1" xmlns="http://www.w3.org/2000/svg" xmlns:xlink="http://www.w3.org/1999/xlink">
    <!-- Generator: Sketch 61.1 (89650) - https://sketch.com -->
    <title>svg/white/pen-tool</title>
    <desc>Created with Sketch.</desc>
    <g id="**-Sticker-Sheets" stroke="none" stroke-width="1" fill="none" fill-rule="evenodd" stroke-linecap="round" stroke-linejoin="round">
        <g id="sticker-sheet--all--page-4" transform="translate(-865.000000, -3594.000000)" stroke="#FFFFFF" stroke-width="2">
            <g id="icon-preview-row-copy-185" transform="translate(0.000000, 3568.000000)">
                <g id="Icon-Row">
                    <g id="pen-tool" transform="translate(857.000000, 18.214286)">
                        <path d="M24,34.9107143 L34.5,24.2857143 L39,28.8392857 L28.5,39.4642857 L24,34.9107143 Z M33,25.8035714 L30.75,14.4196429 L9,9.10714286 L14.25,31.1160714 L25.5,33.3928571 L33,25.8035714 Z M9,9.10714286 L20,20.2380952 M23,26.3095238 C24.6568542,26.3095238 26,24.9503882 26,23.2738095 C26,21.5972308 24.6568542,20.2380952 23,20.2380952 C21.3431458,20.2380952 20,21.5972308 20,23.2738095 C20,24.9503882 21.3431458,26.3095238 23,26.3095238 Z"></path>
                    </g>
                </g>
            </g>
        </g>
    </g>
</svg>