<?xml version="1.0" encoding="UTF-8"?>
<svg width="29px" height="31px" viewBox="0 0 29 31" version="1.1" xmlns="http://www.w3.org/2000/svg" xmlns:xlink="http://www.w3.org/1999/xlink">
    <!-- Generator: Sketch 61.1 (89650) - https://sketch.com -->
    <title>svg/white/phone</title>
    <desc>Created with Sketch.</desc>
    <g id="**-Sticker-Sheets" stroke="none" stroke-width="1" fill="none" fill-rule="evenodd" stroke-linecap="round" stroke-linejoin="round">
        <g id="sticker-sheet--all--page-4" transform="translate(-867.000000, -3765.000000)" stroke="#FFFFFF" stroke-width="2">
            <g id="icon-preview-row-copy-187" transform="translate(0.000000, 3738.000000)">
                <g id="Icon-Row">
                    <g id="phone" transform="translate(857.000000, 18.214286)">
                        <path d="M37.9991522,31.3319829 L37.9991522,35.5972904 C38.0022553,36.3979527 37.6829079,37.1628833 37.1195646,37.7041601 C36.5562213,38.2454369 35.8010916,38.5128954 35.03969,38.4408286 C30.8622785,37.965447 26.8495807,36.4704621 23.3240205,34.0759974 C20.0439428,31.8931038 17.2630095,28.9806212 15.1787116,25.5453826 C12.8844198,21.8362769 11.4566353,17.6133248 11.0110285,13.2186441 C10.9424358,12.4236937 11.1960247,11.6351522 11.7098495,11.0456421 C12.2236743,10.456132 12.9504187,10.1199391 13.712556,10.1190476 L17.7852104,10.1190476 C19.1480076,10.1051401 20.3095786,11.1513456 20.5003134,12.5646303 C20.6722107,13.9296232 20.9909997,15.2698687 21.4505995,16.5598016 C21.8235664,17.5989372 21.5850175,18.7703772 20.8397013,19.5597345 L19.1156109,21.3653813 C21.0481608,24.9248455 23.8622275,27.8720289 27.2609199,29.8959961 L28.9850103,28.0903493 C29.7387144,27.3097766 30.8572435,27.0599434 31.8494439,27.4505532 C33.0811139,27.9318939 34.360824,28.2657629 35.6641636,28.4457916 C37.0292668,28.6474842 38.033349,29.8885924 37.9991522,31.3319829 Z"></path>
                    </g>
                </g>
            </g>
        </g>
    </g>
</svg>