<?xml version="1.0" encoding="UTF-8"?>
<svg width="31px" height="32px" viewBox="0 0 31 32" version="1.1" xmlns="http://www.w3.org/2000/svg" xmlns:xlink="http://www.w3.org/1999/xlink">
    <!-- Generator: Sketch 61.1 (89650) - https://sketch.com -->
    <title>svg/white/phone-missed</title>
    <desc>Created with Sketch.</desc>
    <g id="**-Sticker-Sheets" stroke="none" stroke-width="1" fill="none" fill-rule="evenodd" stroke-linecap="round" stroke-linejoin="round">
        <g id="sticker-sheet--all--page-4" transform="translate(-866.000000, -4105.000000)" stroke="#FFFFFF" stroke-width="2">
            <g id="icon-preview-row-copy-191" transform="translate(0.000000, 4078.000000)">
                <g id="Icon-Row">
                    <g id="phone-missed" transform="translate(857.000000, 18.214286)">
                        <path d="M39,10.1190476 L31,18.2142857 M31,10.1190476 L39,18.2142857 M36.9991522,32.3438877 L36.9991522,36.6091951 C37.0022553,37.4098575 36.6829079,38.1747881 36.1195646,38.7160649 C35.5562213,39.2573416 34.8010916,39.5248002 34.03969,39.4527334 C29.8622785,38.9773518 25.8495807,37.4823669 22.3240205,35.0879021 C19.0439428,32.9050086 16.2630095,29.9925259 14.1787116,26.5572873 C11.8844198,22.8481816 10.4566353,18.6252296 10.0110285,14.2305489 C9.94243575,13.4355984 10.1960247,12.647057 10.7098495,12.0575469 C11.2236743,11.4680368 11.9504187,11.1318438 12.712556,11.1309524 L16.7852104,11.1309524 C18.1480076,11.1170449 19.3095786,12.1632503 19.5003134,13.5765351 C19.6722107,14.9415279 19.9909997,16.2817734 20.4505995,17.5717064 C20.8235664,18.6108419 20.5850175,19.7822819 19.8397013,20.5716392 L18.1156109,22.377286 C20.0481608,25.9367502 22.8622275,28.8839336 26.2609199,30.9079009 L27.9850103,29.1022541 C28.7387144,28.3216814 29.8572435,28.0718482 30.8494439,28.462458 C32.0811139,28.9437987 33.360824,29.2776677 34.6641636,29.4576964 C36.0292668,29.659389 37.033349,30.9004971 36.9991522,32.3438877 Z"></path>
                    </g>
                </g>
            </g>
        </g>
    </g>
</svg>