<?xml version="1.0" encoding="UTF-8"?>
<svg width="44px" height="45px" viewBox="0 0 44 45" version="1.1" xmlns="http://www.w3.org/2000/svg" xmlns:xlink="http://www.w3.org/1999/xlink">
    <!-- Generator: Sketch 61.1 (89650) - https://sketch.com -->
    <title>svg/white/phone-off</title>
    <desc>Created with Sketch.</desc>
    <g id="**-Sticker-Sheets" stroke="none" stroke-width="1" fill="none" fill-rule="evenodd" stroke-linecap="round" stroke-linejoin="round">
        <g id="sticker-sheet--all--page-4" transform="translate(-859.000000, -4183.000000)" stroke="#FFFFFF" stroke-width="2">
            <g id="icon-preview-row-copy-192" transform="translate(0.000000, 4163.000000)">
                <g id="Icon-Row">
                    <g id="phone-off" transform="translate(857.000000, 18.214286)">
                        <path d="M21.5869554,26.3096772 C23.2376972,27.9852203 25.1033274,29.4277954 27.1335929,30.5985449 L29.1993494,28.503598 C30.1024164,27.5979622 31.4426064,27.3081008 32.631433,27.7612939 C34.1071853,28.3197549 35.6404978,28.7071163 37.2021226,28.9159891 C38.8189959,29.1477515 40.0159109,30.5591796 40,32.2151181 L40,37.1638116 C40.0035581,38.0927558 39.620925,38.9802434 38.9459429,39.6082433 C38.2709609,40.2362433 37.3661859,40.5465539 36.4538958,40.4629406 C31.4486392,39.9113935 26.6407378,38.1768826 22.4165111,35.3987776 C20.4569216,34.136951 18.6404495,32.6599199 17,30.9944404 M13.1131139,25.2977724 C10.3155582,21.1651024 8.56890327,16.4614084 8.01349455,11.5646367 C7.92956381,10.6748828 8.23985786,9.79230219 8.86857909,9.13248888 C9.49730031,8.47267557 10.3865521,8.09638925 11.319111,8.09539147 L16.3024524,8.09539147 C17.9699848,8.07982539 19.3912949,9.25079822 19.62468,10.8326271 C19.8350152,12.360405 20.2250886,13.8604842 20.7874596,15.3042507 C21.2438257,16.4673105 20.9519349,17.778453 20.0399584,18.6619467 L17.9303439,20.6829296 M45,3.03571429 L3,45.5357143"></path>
                    </g>
                </g>
            </g>
        </g>
    </g>
</svg>