<?xml version="1.0" encoding="UTF-8"?>
<svg width="24px" height="41px" viewBox="0 0 24 41" version="1.1" xmlns="http://www.w3.org/2000/svg" xmlns:xlink="http://www.w3.org/1999/xlink">
    <!-- Generator: Sketch 61.1 (89650) - https://sketch.com -->
    <title>svg/white/plant--c</title>
    <desc>Created with Sketch.</desc>
    <g id="**-Sticker-Sheets" stroke="none" stroke-width="1" fill="none" fill-rule="evenodd" stroke-linecap="round" stroke-linejoin="round">
        <g id="sticker-sheet--all--page-5" transform="translate(-868.000000, -445.000000)" stroke="#FFFFFF" stroke-width="2">
            <g id="icon-preview-row-copy-195" transform="translate(0.000000, 422.000000)">
                <g id="Icon-Row">
                    <g id="plant--c" transform="translate(857.000000, 18.214286)">
                        <path d="M23,29.696774 L23,23.6253455 M17.6039995,21.3602212 C20.4735975,24.2637931 25.1259837,24.2637931 27.9955817,21.3602212 C29.9085225,19.424382 31.4157377,14.3941269 32.5172274,6.26945596 C24.4881408,7.38405863 19.5170773,8.90922973 17.6040369,10.8449692 C14.7345884,13.7486907 14.7345884,18.4564624 17.6039995,21.3602212 Z M26.7613403,12.2299416 C25.85986,12.7999526 24.8789601,13.6214292 23.8186408,14.6943714 C22.7583214,15.7673136 21.8983278,16.8086459 21.2386597,17.8183683 M12,29.696774 L34,29.696774 L31.3357866,42.2777816 C31.1400344,43.2021669 30.3240617,43.8634407 29.3791769,43.8634407 L16.6208231,43.8634407 C15.6759383,43.8634407 14.8599656,43.2021669 14.6642134,42.2777816 L12,29.696774 L12,29.696774 Z"></path>
                    </g>
                </g>
            </g>
        </g>
    </g>
</svg>