<?xml version="1.0" encoding="UTF-8"?>
<svg width="37px" height="44px" viewBox="0 0 37 44" version="1.1" xmlns="http://www.w3.org/2000/svg" xmlns:xlink="http://www.w3.org/1999/xlink">
    <!-- Generator: Sketch 61.1 (89650) - https://sketch.com -->
    <title>svg/white/puzzle-2--c</title>
    <desc>Created with Sketch.</desc>
    <g id="**-Sticker-Sheets" stroke="none" stroke-width="1" fill="none" fill-rule="evenodd" stroke-linecap="round" stroke-linejoin="round">
        <g id="sticker-sheet--all--page-5" transform="translate(-866.000000, -1462.000000)" stroke="#FFFFFF" stroke-width="2">
            <g id="icon-preview-row-copy-241" transform="translate(0.000000, 1442.000000)">
                <g id="Icon-Row">
                    <g id="puzzle-2--c" transform="translate(857.000000, 18.214286)">
                        <path d="M24.4969032,3.03571429 C26.9821846,3.03571429 28.9969032,5.07441766 28.9969032,7.58928571 C28.9969032,9.02016712 28.3446875,10.2969019 27.3246736,11.1316865 L34.9969032,11.1309524 C36.1014727,11.1309524 36.9969032,12.0263829 36.9969032,13.1309524 L36.9967741,21.9314238 C37.8217189,20.8985834 39.0838601,20.2380952 40.4984516,20.2380952 C42.983733,20.2380952 44.9984516,22.2767986 44.9984516,24.7916667 C44.9984516,27.3065347 42.983733,29.3452381 40.4984516,29.3452381 C39.0838239,29.3452381 37.8216544,28.6847162 36.9967109,27.6518303 L36.9969032,35.4404762 C36.9969032,36.5450457 36.1014727,37.4404762 34.9969032,37.4404762 L28.2388243,37.4400161 C28.717649,38.1636689 28.9969032,39.0339536 28.9969032,39.9702381 C28.9969032,42.4851062 26.9821846,44.5238095 24.4969032,44.5238095 C22.0116218,44.5238095 19.9969032,42.4851062 19.9969032,39.9702381 C19.9969032,39.0339536 20.2761574,38.1636689 20.7549821,37.4400161 L12.9969032,37.4404762 C11.8923337,37.4404762 10.9969032,36.5450457 10.9969032,35.4404762 L10.9959044,27.6508202 C11.8208316,28.6842855 13.0833628,29.3452381 14.4984516,29.3452381 C16.983733,29.3452381 18.9984516,27.3065347 18.9984516,24.7916667 C18.9984516,22.2767986 16.983733,20.2380952 14.4984516,20.2380952 C13.083396,20.2380952 11.8208908,20.8990168 10.9959623,21.9324405 L10.9969032,13.1309524 C10.9969032,12.0263829 11.8923337,11.1309524 12.9969032,11.1309524 L21.6692199,11.1317577 C20.649156,10.2969745 19.9969032,9.02020782 19.9969032,7.58928571 C19.9969032,5.07441766 22.0116218,3.03571429 24.4969032,3.03571429 Z"></path>
                    </g>
                </g>
            </g>
        </g>
    </g>
</svg>