<?xml version="1.0" encoding="UTF-8"?>
<svg width="42px" height="31px" viewBox="0 0 42 31" version="1.1" xmlns="http://www.w3.org/2000/svg" xmlns:xlink="http://www.w3.org/1999/xlink">
    <!-- Generator: Sketch 61.1 (89650) - https://sketch.com -->
    <title>svg/white/radio</title>
    <desc>Created with Sketch.</desc>
    <g id="**-Sticker-Sheets" stroke="none" stroke-width="1" fill="none" fill-rule="evenodd" stroke-linecap="round" stroke-linejoin="round">
        <g id="sticker-sheet--all--page-5" transform="translate(-860.000000, -1554.000000)" stroke="#FFFFFF" stroke-width="2">
            <g id="icon-preview-row-copy-206" transform="translate(0.000000, 1527.000000)">
                <g id="Icon-Row">
                    <g id="radio" transform="translate(857.000000, 18.214286)">
                        <path d="M24,27.6587302 C26.209139,27.6587302 28,25.8465494 28,23.6111111 C28,21.3756728 26.209139,19.5634921 24,19.5634921 C21.790861,19.5634921 20,21.3756728 20,23.6111111 C20,25.8465494 21.790861,27.6587302 24,27.6587302 Z M32.4818113,15.7897218 C34.7356171,18.0447857 36.0020029,21.1048157 36.0020029,24.2957331 C36.0020029,27.4866506 34.7356171,30.5466805 32.4818113,32.8017445 M15.5181887,32.7817067 C13.2643829,30.5266428 11.9979971,27.4666128 11.9979971,24.2756954 C11.9979971,21.084778 13.2643829,18.024748 15.5181887,15.7696841 M38.1430202,10.1190476 C45.9523266,17.9437735 45.9523266,30.627655 38.1430202,38.452381 M9.85697981,38.452381 C2.0476734,30.627655 2.0476734,17.9437735 9.85697981,10.1190476"></path>
                    </g>
                </g>
            </g>
        </g>
    </g>
</svg>