<?xml version="1.0" encoding="UTF-8"?>
<svg width="30px" height="31px" viewBox="0 0 30 31" version="1.1" xmlns="http://www.w3.org/2000/svg" xmlns:xlink="http://www.w3.org/1999/xlink">
    <!-- Generator: Sketch 61.1 (89650) - https://sketch.com -->
    <title>svg/white/slack</title>
    <desc>Created with Sketch.</desc>
    <g id="**-Sticker-Sheets" stroke="none" stroke-width="1" fill="none" fill-rule="evenodd" stroke-linecap="round" stroke-linejoin="round">
        <g id="sticker-sheet--all--page-5" transform="translate(-866.000000, -3679.000000)" stroke="#FFFFFF" stroke-width="2">
            <g id="icon-preview-row-copy-231" transform="translate(0.000000, 3652.000000)">
                <g id="Icon-Row">
                    <g id="slack" transform="translate(857.000000, 18.214286)">
                        <path d="M21,27 C22.1066667,27 23,27.92125 23,29.0625 L23,35.9375 C23,37.07875 22.1066667,38 21,38 C19.8933333,38 19,37.07875 19,35.9375 L19,29.0625 C19,27.92125 19.8933333,27 21,27 Z M29,34 C30.1066667,34 31,34.8933333 31,36 C31,37.1066667 30.1066667,38 29,38 C27.8933333,38 27,37.1066667 27,36 L27,36 L27,34 Z M14,27 L14,29 C14,30.1066667 13.1066667,31 12,31 C10.8933333,31 10,30.1066667 10,29 C10,27.8933333 10.8933333,27 12,27 L14,27 Z M35.9375,26 C37.07875,26 38,26.8933333 38,28 C38,29.1066667 37.07875,30 35.9375,30 L29.0625,30 C27.92125,30 27,29.1066667 27,28 C27,26.8933333 27.92125,26 29.0625,26 L35.9375,26 Z M18.9375,19 C20.07875,19 21,19.8933333 21,21 C21,22.1066667 20.07875,23 18.9375,23 L18.9375,23 L12.0625,23 C10.92125,23 10,22.1066667 10,21 C10,19.8933333 10.92125,19 12.0625,19 L12.0625,19 Z M28,10 C29.1066667,10 30,10.92125 30,12.0625 L30,18.9375 C30,20.07875 29.1066667,21 28,21 C26.8933333,21 26,20.07875 26,18.9375 L26,12.0625 C26,10.92125 26.8933333,10 28,10 Z M36,17 C37.1066667,17 38,17.8933333 38,19 C38,20.1066667 37.1066667,21 36,21 L34,21 L34,19 C34,17.8933333 34.8933333,17 36,17 Z M19,10 C20.1066667,10 21,10.8933333 21,12 L21,12 L21,14 L19,14 C17.8933333,14 17,13.1066667 17,12 C17,10.8933333 17.8933333,10 19,10 Z"></path>
                    </g>
                </g>
            </g>
        </g>
    </g>
</svg>