<?xml version="1.0" encoding="UTF-8"?>
<svg width="38px" height="39px" viewBox="0 0 38 39" version="1.1" xmlns="http://www.w3.org/2000/svg" xmlns:xlink="http://www.w3.org/1999/xlink">
    <!-- Generator: Sketch 61.1 (89650) - https://sketch.com -->
    <title>svg/white/sun</title>
    <desc>Created with Sketch.</desc>
    <g id="**-Sticker-Sheets" stroke="none" stroke-width="1" fill="none" fill-rule="evenodd" stroke-linecap="round" stroke-linejoin="round">
        <g id="sticker-sheet--all--page-6" transform="translate(-862.000000, -193.000000)" stroke="#FFFFFF" stroke-width="2">
            <g id="icon-preview-row-copy-241" transform="translate(0.000000, 170.000000)">
                <g id="Icon-Row">
                    <g id="sun" transform="translate(857.000000, 18.214286)">
                        <path d="M24,32 C28.418278,32 32,28.418278 32,24 C32,19.581722 28.418278,16 24,16 C19.581722,16 16,19.581722 16,24 C16,28.418278 19.581722,32 24,32 Z M24,6 L24,10 M24,38 L24,42 M11,11 L14,14 M34,34 L37,37 M6,24 L10,24 M38,24 L42,24 M11,37 L14,34 M34,14 L37,11"></path>
                    </g>
                </g>
            </g>
        </g>
    </g>
</svg>