<?xml version="1.0" encoding="UTF-8"?>
<svg width="37px" height="33px" viewBox="0 0 37 33" version="1.1" xmlns="http://www.w3.org/2000/svg" xmlns:xlink="http://www.w3.org/1999/xlink">
    <!-- Generator: Sketch 61.1 (89650) - https://sketch.com -->
    <title>svg/white/users</title>
    <desc>Created with Sketch.</desc>
    <g id="**-Sticker-Sheets" stroke="none" stroke-width="1" fill="none" fill-rule="evenodd" stroke-linecap="round" stroke-linejoin="round">
        <g id="sticker-sheet--all--page-6" transform="translate(-862.000000, -3339.000000)" stroke="#FFFFFF" stroke-width="2">
            <g id="icon-preview-row-copy-272" transform="translate(0.000000, 3313.000000)">
                <g id="Icon-Row">
                    <g id="users" transform="translate(857.000000, 18.214286)">
                        <path d="M41,39 L41,35.9335605 C40.9977338,33.1386814 38.9416646,30.6987192 36,30 M30,10 C32.942166,10.7601558 35,13.43534 35,16.5 C35,19.56466 32.942166,22.2398442 30,23 M31,39 L31,35.6666667 C31,31.9847683 28.0152317,29 24.3333333,29 L12.6666667,29 C8.98476833,29 6,31.9847683 6,35.6666667 L6,39 M18.6818182,23 C22.5478114,23 25.6818182,19.8659932 25.6818182,16 C25.6818182,12.1340068 22.5478114,9 18.6818182,9 C14.8158249,9 11.6818182,12.1340068 11.6818182,16 C11.6818182,19.8659932 14.8158249,23 18.6818182,23 Z"></path>
                    </g>
                </g>
            </g>
        </g>
    </g>
</svg>