<?xml version="1.0" encoding="UTF-8"?>
<svg width="30px" height="37px" viewBox="0 0 30 37" version="1.1" xmlns="http://www.w3.org/2000/svg" xmlns:xlink="http://www.w3.org/1999/xlink">
    <!-- Generator: Sketch 61.1 (89650) - https://sketch.com -->
    <title>svg/bright/clipboard</title>
    <desc>Created with Sketch.</desc>
    <g id="**-Sticker-Sheets" stroke="none" stroke-width="1" fill="none" fill-rule="evenodd" stroke-linecap="round" stroke-linejoin="round">
        <g id="sticker-sheet--top-hits--page-1" transform="translate(-714.000000, -706.000000)" stroke="#00CFFF" stroke-width="2">
            <g id="icon-preview-row-copy-59" transform="translate(-4.000000, 682.000000)">
                <g id="Icon-Row">
                    <g id="clipboard" transform="translate(709.000000, 18.214286)">
                        <path d="M31,10.1190476 L34.5,10.1190476 C36.4329966,10.1190476 38,11.6795366 38,13.6044974 L38,38.0026455 C38,39.9276062 36.4329966,41.4880952 34.5,41.4880952 L13.5,41.4880952 C11.5670034,41.4880952 10,39.9276062 10,38.0026455 L10,13.6044974 C10,11.6795366 11.5670034,10.1190476 13.5,10.1190476 L17,10.1190476 M18,7.08333333 L30,7.08333333 C30.5522847,7.08333333 31,7.53104858 31,8.08333333 L31,13.1666667 C31,13.7189514 30.5522847,14.1666667 30,14.1666667 L18,14.1666667 C17.4477153,14.1666667 17,13.7189514 17,13.1666667 L17,8.08333333 C17,7.53104858 17.4477153,7.08333333 18,7.08333333 Z"></path>
                    </g>
                </g>
            </g>
        </g>
    </g>
</svg>