<?xml version="1.0" encoding="UTF-8"?>
<svg width="30px" height="31px" viewBox="0 0 30 31" version="1.1" xmlns="http://www.w3.org/2000/svg" xmlns:xlink="http://www.w3.org/1999/xlink">
    <!-- Generator: Sketch 61.1 (89650) - https://sketch.com -->
    <title>svg/bright/gift</title>
    <desc>Created with Sketch.</desc>
    <g id="**-Sticker-Sheets" stroke="none" stroke-width="1" fill="none" fill-rule="evenodd" stroke-linecap="round" stroke-linejoin="round">
        <g id="sticker-sheet--top-hits--page-2" transform="translate(-719.000000, -4256.000000)" stroke="#00CFFF" stroke-width="2">
            <g id="icon-preview-row-copy-117" transform="translate(1.000000, 4229.000000)">
                <g id="Icon-Row">
                    <g id="gift" transform="translate(709.000000, 18.214286)">
                        <path d="M35,24.2857143 L35,38.452381 L13,38.452381 L13,24.2857143 M10,17.202381 L38,17.202381 L38,24.2857143 L10,24.2857143 L10,17.202381 Z M24.5,38.452381 L24.5,17.202381 M24,17.202381 L17.5714286,17.202381 C15.598983,17.202381 14,15.6167228 14,13.6607143 C14,11.7047058 15.598983,10.1190476 17.5714286,10.1190476 C22.5714286,10.1190476 24,17.202381 24,17.202381 Z M24,17.202381 L30.4285714,17.202381 C32.401017,17.202381 34,15.6167228 34,13.6607143 C34,11.7047058 32.401017,10.1190476 30.4285714,10.1190476 C25.4285714,10.1190476 24,17.202381 24,17.202381 Z"></path>
                    </g>
                </g>
            </g>
        </g>
    </g>
</svg>