<?xml version="1.0" encoding="UTF-8"?>
<svg width="116px" height="116px" viewBox="0 0 116 116" version="1.1" xmlns="http://www.w3.org/2000/svg" xmlns:xlink="http://www.w3.org/1999/xlink">
    <title>Untitled 9</title>
    <g id="Page-1" stroke="none" stroke-width="1" fill="none" fill-rule="evenodd">
        <g id="rss25" fill="#FFFFFF" fill-rule="nonzero">
            <path d="M16.28,84.072 C11.933,84.072 8.24,85.592 5.198,88.634 C2.158,91.676 0.636,95.369 0.636,99.714 C0.636,104.061 2.156,107.754 5.198,110.794 C8.24,113.836 11.934,115.357 16.278,115.357 C20.624,115.357 24.318,113.837 27.358,110.795 C30.4,107.753 31.921,104.061 31.921,99.715 C31.921,95.369 30.401,91.675 27.361,88.635 C24.321,85.593 20.628,84.072 16.281,84.072 L16.28,84.072 Z M52.29,63.702 C46.152,57.512 39.118,52.582 31.188,48.916 C23.258,45.249 14.948,43.063 6.258,42.356 L5.85,42.356 C4.438,42.356 3.27,42.819 2.347,43.742 C1.207,44.719 0.637,45.996 0.637,47.572 L0.637,58.57 C0.637,59.927 1.084,61.095 1.98,62.073 C2.876,63.053 4.003,63.595 5.36,63.703 C17.8,64.898 28.43,69.909 37.257,78.735 C46.083,87.56 51.094,98.193 52.289,110.631 C52.395,111.991 52.939,113.119 53.919,114.015 C54.894,114.912 56.061,115.361 57.419,115.361 L68.419,115.361 C69.993,115.361 71.269,114.791 72.249,113.651 C73.279,112.561 73.741,111.258 73.634,109.737 C72.927,101.047 70.74,92.737 67.074,84.807 C63.408,76.877 58.479,69.843 52.287,63.705 L52.29,63.702 Z" id="Shape"></path>
            <path d="M105.573,69.04 C99.761,56.03 91.777,44.475 81.62,34.372 C71.517,24.215 59.962,16.232 46.953,10.419 C33.945,4.605 20.325,1.345 6.093,0.639 L5.85,0.639 C4.438,0.639 3.243,1.129 2.265,2.106 C1.179,3.082 0.635,4.332 0.635,5.853 L0.635,17.503 C0.635,18.861 1.112,20.043 2.062,21.047 C3.012,22.051 4.166,22.581 5.524,22.637 C17.202,23.343 28.296,26.114 38.806,30.947 C49.316,35.782 58.441,42.067 66.181,49.807 C73.921,57.547 80.211,66.673 85.041,77.183 C89.878,87.695 92.621,98.787 93.271,110.465 C93.328,111.822 93.857,112.977 94.861,113.927 C95.867,114.877 97.076,115.354 98.488,115.354 L110.138,115.354 C111.658,115.354 112.906,114.81 113.885,113.722 C114.972,112.636 115.459,111.362 115.353,109.894 C114.649,95.662 111.389,82.042 105.577,69.034 L105.573,69.04 Z" id="Path"></path>
        </g>
    </g>
</svg>