<?xml version="1.0" encoding="UTF-8"?>
<svg width="30px" height="31px" viewBox="0 0 30 31" version="1.1" xmlns="http://www.w3.org/2000/svg" xmlns:xlink="http://www.w3.org/1999/xlink">
    <!-- Generator: Sketch 61.1 (89650) - https://sketch.com -->
    <title>svg/medium/git-branch</title>
    <desc>Created with Sketch.</desc>
    <g id="**-Sticker-Sheets" stroke="none" stroke-width="1" fill="none" fill-rule="evenodd" stroke-linecap="round" stroke-linejoin="round">
        <g id="sticker-sheet--top-hits--page-2" transform="translate(-571.000000, -3356.000000)" stroke="#046B99" stroke-width="2">
            <g id="icon-preview-row-copy-118" transform="translate(1.000000, 3329.000000)">
                <g id="Icon-Row">
                    <g id="git-branch" transform="translate(561.000000, 18.214286)">
                        <path d="M15,10.1190476 L15,29.3452381 M33.5,19.2261905 C35.9852814,19.2261905 38,17.1874871 38,14.672619 C38,12.157751 35.9852814,10.1190476 33.5,10.1190476 C31.0147186,10.1190476 29,12.157751 29,14.672619 C29,17.1874871 31.0147186,19.2261905 33.5,19.2261905 Z M14.5,38.452381 C16.9852814,38.452381 19,36.4136776 19,33.8988095 C19,31.3839415 16.9852814,29.3452381 14.5,29.3452381 C12.0147186,29.3452381 10,31.3839415 10,33.8988095 C10,36.4136776 12.0147186,38.452381 14.5,38.452381 Z M33,19.2261905 C33,27.0502244 26.7319865,33.3928571 19,33.3928571"></path>
                    </g>
                </g>
            </g>
        </g>
    </g>
</svg>