<?xml version="1.0" encoding="UTF-8"?>
<svg width="27px" height="43px" viewBox="0 0 27 43" version="1.1" xmlns="http://www.w3.org/2000/svg" xmlns:xlink="http://www.w3.org/1999/xlink">
    <!-- Generator: Sketch 61.1 (89650) - https://sketch.com -->
    <title>svg/medium/plant-small--c</title>
    <desc>Created with Sketch.</desc>
    <g id="**-Sticker-Sheets" stroke="none" stroke-width="1" fill="none" fill-rule="evenodd" stroke-linecap="round" stroke-linejoin="round">
        <g id="sticker-sheet--top-hits--page-1" transform="translate(-581.000000, -2237.000000)" stroke="#046B99" stroke-width="2">
            <g id="icon-preview-row-copy-24" transform="translate(0.000000, 2210.000000)">
                <g id="Icon-Row--Large-icon">
                    <g id="plant-small--c" transform="translate(561.000000, 10.000000)">
                        <path d="M43,41.5 L40,57.1216216 C37.3333333,58.0405405 34.6666667,58.5 32,58.5 C29.3333333,58.5 26.6666667,58.0405405 24,57.1216216 L21,41.5 L21,41.5 M32,45 C38.0751322,45 43,43.4329966 43,41.5 C43,39.5670034 38.0751322,38 32,38 C25.9248678,38 21,39.5670034 21,41.5 C21,43.4329966 25.9248678,45 32,45 Z M32,41 L32,32 M32,32 L32,32 C39.7319865,32 46,25.7319865 46,18 M46,18 L46,18 C38.2680135,18 32,24.2680135 32,32 M32,32 L32,32 C25.9248678,32 21,27.0751322 21,21 M21,21 L21,21 C27.0751322,21 32,25.9248678 32,32"></path>
                    </g>
                </g>
            </g>
        </g>
    </g>
</svg>