<?xml version="1.0" encoding="UTF-8"?>
<svg width="31px" height="33px" viewBox="0 0 31 33" version="1.1" xmlns="http://www.w3.org/2000/svg" xmlns:xlink="http://www.w3.org/1999/xlink">
    <!-- Generator: Sketch 61.1 (89650) - https://sketch.com -->
    <title>svg/medium/scissors</title>
    <desc>Created with Sketch.</desc>
    <g id="**-Sticker-Sheets" stroke="none" stroke-width="1" fill="none" fill-rule="evenodd" stroke-linecap="round" stroke-linejoin="round">
        <g id="sticker-sheet--top-hits--page-1" transform="translate(-570.000000, -2575.000000)" stroke="#046B99" stroke-width="2">
            <g id="icon-preview-row-copy-215" transform="translate(0.000000, 2549.000000)">
                <g id="Icon-Row">
                    <g id="scissors" transform="translate(561.000000, 18.214286)">
                        <path d="M15,19 C17.7614237,19 20,16.7614237 20,14 C20,11.2385763 17.7614237,9 15,9 C12.2385763,9 10,11.2385763 10,14 C10,16.7614237 12.2385763,19 15,19 Z M15,39 C17.7614237,39 20,36.7614237 20,34 C20,31.2385763 17.7614237,29 15,29 C12.2385763,29 10,31.2385763 10,34 C10,36.7614237 12.2385763,39 15,39 Z M39,11 L19,31 M30,28 L39,37 M19,18 L26,24"></path>
                    </g>
                </g>
            </g>
        </g>
    </g>
</svg>