<?xml version="1.0" encoding="UTF-8"?>
<svg width="31px" height="31px" viewBox="0 0 31 31" version="1.1" xmlns="http://www.w3.org/2000/svg" xmlns:xlink="http://www.w3.org/1999/xlink">
    <!-- Generator: Sketch 61.1 (89650) - https://sketch.com -->
    <title>svg/medium/thumbs-up</title>
    <desc>Created with Sketch.</desc>
    <g id="**-Sticker-Sheets" stroke="none" stroke-width="1" fill="none" fill-rule="evenodd" stroke-linecap="round" stroke-linejoin="round">
        <g id="sticker-sheet--top-hits--page-2" transform="translate(-571.000000, -622.000000)" stroke="#046B99" stroke-width="2">
            <g id="icon-preview-row-copy-250" transform="translate(1.000000, 595.000000)">
                <g id="Icon-Row">
                    <g id="thumbs-up" transform="translate(561.000000, 18.214286)">
                        <path d="M21.0256138,28.0003587 L21.0256138,34.0003587 C21.0256138,36.3199122 22.8654733,38.0003587 25.2224675,38.0003587 L31.0256138,25.0003587 L31.0256138,10.0001773 L15.0256138,10.0001773 C13.6069017,9.98457493 12.2337308,11.0003471 12.0210011,12.3808284 L10.0256138,25.0003587 C9.90034775,25.8125464 10.2469334,26.4179554 10.7946786,27.0378563 C11.3424237,27.6577572 12.1391609,28.0096611 12.9738573,28.0003587 L21.0256138,28.0003587 Z M31.0256138,10.0003587 L34.7110214,10.000872 C36.3775495,9.97186727 37.8021928,11.1753118 38.0256138,12.8008207 L38.1384728,22.2004101 C37.9150518,23.825919 36.4904086,25.0293635 34.8238805,25.0003587 L31.0256138,25.0003587 L31.0256138,10.0003587 Z" transform="translate(24.069236, 24.000179) scale(-1, -1) translate(-24.069236, -24.000179) "></path>
                    </g>
                </g>
            </g>
        </g>
    </g>
</svg>